<?xml version="1.0" standalone="no"?>
<!DOCTYPE svg PUBLIC "-//W3C//DTD SVG 20010904//EN"
 "http://www.w3.org/TR/2001/REC-SVG-20010904/DTD/svg10.dtd">
<svg version="1.0" xmlns="http://www.w3.org/2000/svg"
 width="2232.000000pt" height="2232.000000pt" viewBox="0 0 2232.000000 2232.000000"
 preserveAspectRatio="xMidYMid meet">

<g transform="translate(0.000000,2232.000000) scale(0.100000,-0.100000)"
fill="#000000" stroke="none">
<path d="M10920 22314 c-2546 -60 -4965 -968 -6915 -2595 -487 -407 -1015
-936 -1423 -1428 -1360 -1637 -2227 -3636 -2491 -5746 -58 -461 -83 -881 -83
-1385 0 -404 10 -641 43 -1005 204 -2264 1090 -4399 2550 -6150 407 -487 936
-1015 1428 -1423 1697 -1410 3778 -2287 5971 -2517 392 -41 1014 -70 980 -46
-8 6 -10 11 -4 11 5 0 14 -4 20 -9 5 -4 22 -12 38 -15 26 -6 28 -5 17 8 -8 9
-10 16 -7 16 4 0 2 8 -3 18 -7 13 -7 22 1 30 8 8 8 15 -2 27 -8 10 -9 15 -1
15 6 0 11 -5 11 -11 0 -5 4 -7 10 -4 6 3 7 -1 4 -9 -4 -11 0 -16 11 -16 10 0
13 5 9 12 -5 8 -2 9 10 5 10 -4 22 -7 27 -7 5 0 9 -4 9 -9 0 -5 -10 -7 -21 -4
-20 5 -20 4 -9 -18 13 -24 13 -24 -9 -5 -24 22 -41 15 -21 -9 7 -9 10 -18 6
-22 -3 -3 -6 -1 -6 6 0 7 -5 9 -12 5 -8 -5 -2 -12 17 -20 35 -15 85 -18 85 -5
0 9 42 7 59 -3 5 -4 12 -3 15 2 3 5 0 9 -7 10 -7 0 -27 3 -44 6 -18 3 -33 2
-33 -3 0 -4 -7 -8 -16 -8 -14 0 -14 2 2 14 10 7 24 11 31 9 19 -8 16 5 -4 20
-22 15 -7 36 29 40 13 1 24 3 26 3 2 1 -4 9 -14 18 -13 13 -19 14 -22 5 -2 -7
-13 -17 -24 -23 -18 -10 -20 -9 -15 5 4 9 2 16 -4 16 -6 0 -9 6 -6 13 2 6 13
11 23 10 10 -1 13 0 6 3 -17 8 -5 24 13 18 8 -3 24 4 37 16 23 21 23 21 26 2
4 -23 28 -36 37 -22 4 6 -2 10 -12 11 -11 0 -13 3 -5 6 9 3 6 12 -12 28 -14
13 -22 26 -18 30 4 4 -9 -2 -28 -12 -19 -11 -41 -19 -48 -17 -7 1 -8 0 -2 -3
17 -8 11 -32 -12 -44 -21 -11 -22 -11 -10 4 11 12 11 20 2 38 -7 12 -8 19 -2
15 5 -3 13 1 16 10 11 29 6 38 -10 18 -8 -10 -13 -14 -10 -7 4 6 0 13 -6 16
-10 3 -10 7 -1 17 8 9 9 20 2 38 -5 13 -7 27 -5 29 3 3 1 16 -4 29 -6 15 -5
26 2 30 6 4 8 3 5 -3 -4 -6 2 -22 14 -37 15 -19 18 -30 10 -44 -8 -15 -6 -18
12 -18 12 1 25 6 29 11 5 6 8 5 8 -3 0 -8 5 -10 13 -6 7 4 9 3 4 -2 -9 -10
-14 -11 -52 -13 -14 0 -25 -5 -25 -10 0 -5 8 -8 18 -6 9 1 23 -2 29 -7 9 -7
19 -3 34 13 11 13 18 19 15 13 -3 -7 4 -11 20 -11 13 0 23 2 20 5 -3 2 0 14 6
26 8 16 8 19 -2 9 -9 -8 -17 -7 -31 5 -20 18 -27 48 -7 36 7 -4 8 -3 4 4 -4 6
-2 21 4 32 12 23 -4 55 -21 44 -5 -3 -9 -2 -8 3 3 19 -14 52 -24 46 -6 -3 -7
-1 -3 5 4 7 2 12 -3 12 -6 0 -11 -5 -11 -11 0 -5 -5 -7 -11 -3 -8 4 -4 11 10
18 12 7 19 14 17 17 -3 3 3 10 13 16 20 12 24 1 9 -23 -11 -17 3 -53 23 -59
11 -4 17 -11 14 -16 -4 -5 1 -9 9 -9 8 0 18 5 22 12 4 6 3 8 -3 5 -6 -4 -22 4
-37 18 -28 26 -35 48 -12 39 9 -3 12 -13 9 -22 -4 -9 -3 -14 1 -10 5 4 19 3
32 -2 18 -7 24 -6 24 4 0 9 -7 12 -17 10 -11 -3 -23 3 -31 16 -7 12 -8 20 -2
20 6 0 13 -6 16 -14 8 -22 44 -7 43 18 -1 17 -2 18 -6 3 -3 -10 -10 -16 -16
-13 -7 3 -20 9 -30 12 -13 5 -17 13 -13 30 3 12 2 26 -4 29 -19 12 -10 22 14
18 22 -5 26 -1 32 31 3 21 9 34 13 31 3 -4 6 -10 6 -13 0 -4 4 -13 8 -20 7 -9
12 -9 24 3 8 9 13 19 9 22 -3 4 -6 3 -6 -1 0 -4 -9 -2 -20 4 -11 6 -17 16 -14
22 4 6 3 8 -4 4 -5 -3 -12 -3 -15 1 -2 5 -2 3 -1 -4 4 -18 -13 -26 -19 -9 -3
8 4 22 15 33 12 10 18 12 14 6 -4 -7 -2 -13 3 -13 6 0 11 5 11 11 0 5 4 8 9 4
14 -8 21 9 10 25 -7 12 -9 12 -9 1 0 -7 -6 -11 -14 -8 -7 3 -19 0 -25 -6 -6
-6 -11 -7 -11 -3 0 5 -7 3 -15 -4 -8 -7 -15 -9 -15 -6 0 4 -9 2 -19 -3 -16 -9
-18 -8 -14 9 4 16 9 18 24 9 16 -8 21 -5 29 16 5 14 17 25 25 25 9 0 13 -5 10
-10 -3 -6 -1 -10 5 -10 6 0 10 8 8 18 -2 10 2 16 10 14 8 -1 11 2 7 8 -3 5 -1
10 4 10 6 0 11 -5 11 -12 0 -6 3 -8 7 -4 4 4 -3 16 -17 26 -14 11 -20 20 -14
20 6 0 10 10 10 21 -1 12 5 24 12 26 6 3 12 0 12 -7 0 -6 -5 -8 -12 -4 -7 4
-8 3 -4 -5 12 -19 27 -2 20 23 -3 15 1 29 11 40 9 9 11 16 5 16 -6 0 -13 -7
-16 -15 -5 -13 -9 -13 -22 -3 -13 11 -14 10 -7 -11 4 -14 3 -21 -2 -18 -6 4
-11 -6 -11 -21 -2 -44 -17 -85 -33 -90 -11 -3 -11 -2 1 7 10 7 11 11 3 11 -18
0 -16 29 3 37 11 4 14 15 11 39 -3 19 -1 32 3 29 9 -6 5 79 -5 95 -4 6 -11 7
-17 4 -7 -4 -8 -2 -4 4 4 7 1 12 -7 12 -7 0 -14 7 -14 15 0 13 3 13 24 0 25
-17 30 -9 9 17 -7 10 -17 14 -21 10 -4 -4 0 5 9 19 9 14 13 29 10 32 -4 4 -1
13 6 22 8 9 8 15 2 15 -6 0 -14 10 -18 23 -12 38 -50 53 -39 15 5 -21 5 -21
-6 -5 -14 24 -1 38 29 31 13 -4 22 -14 22 -26 0 -11 9 -22 20 -25 24 -6 25
-16 6 -36 -11 -11 -12 -17 -3 -26 8 -8 8 -11 -2 -11 -7 0 -10 -4 -6 -10 3 -6
15 -6 29 0 20 7 24 6 22 -8 -4 -21 -23 -27 -41 -12 -10 8 -15 9 -15 2 0 -6 5
-14 11 -17 6 -4 8 -13 5 -21 -3 -8 -1 -14 3 -14 5 0 11 7 15 15 4 12 11 13 33
4 27 -10 27 -10 8 10 -12 14 -14 21 -5 21 7 0 10 7 7 15 -4 8 -2 17 4 21 7 4
7 10 0 18 -8 10 -4 11 18 8 16 -2 31 0 34 5 3 4 -13 9 -34 10 -26 1 -39 -3
-39 -12 0 -7 6 -16 13 -18 9 -4 9 -6 -1 -6 -7 -1 -17 10 -24 23 -14 31 8 59
35 45 13 -8 18 -4 23 16 3 13 11 22 16 19 6 -4 6 2 -1 14 -9 16 -7 21 7 28 9
4 24 6 32 5 12 -1 13 0 1 7 -11 8 -10 12 5 21 17 10 17 11 -6 8 -15 -1 -28
-10 -32 -22 -6 -19 -6 -18 -7 3 -1 13 -7 22 -17 22 -8 0 -13 4 -10 9 3 5 -1
12 -10 15 -22 9 -24 8 -24 -10 0 -9 5 -12 12 -8 7 5 8 3 3 -6 -4 -7 -2 -16 6
-21 8 -5 16 -3 21 4 4 7 6 2 5 -11 0 -12 -5 -22 -9 -22 -4 0 -8 -5 -8 -11 0
-5 5 -7 12 -3 7 4 8 3 4 -5 -4 -6 -16 -9 -27 -6 -17 6 -24 -3 -21 -27 2 -11
-27 -18 -33 -7 -4 5 -11 7 -16 4 -5 -4 -9 8 -9 25 0 21 -4 29 -12 24 -7 -4 -8
-3 -4 4 13 21 32 12 31 -15 0 -14 6 -28 14 -31 10 -3 12 1 9 16 -4 16 -2 19
10 15 10 -4 13 -2 8 5 -3 6 -1 14 5 18 8 4 9 3 5 -4 -4 -7 -3 -12 3 -12 18 0
23 20 7 26 -9 3 -16 12 -16 20 0 8 -4 14 -10 14 -5 0 -7 8 -4 18 4 10 3 13 -3
6 -4 -6 -16 -10 -27 -8 -14 2 -17 -2 -13 -22 3 -16 0 -24 -10 -24 -8 0 -11 5
-8 10 3 6 4 10 0 10 -3 0 -10 -10 -16 -23 -9 -21 -9 -21 -4 3 3 14 8 36 11 49
7 35 13 41 31 34 11 -4 14 -2 9 5 -7 11 31 38 41 29 2 -3 -5 -8 -16 -12 -13
-4 -18 -11 -14 -22 5 -13 2 -15 -15 -11 -12 4 -22 2 -22 -3 0 -9 17 -13 35 -9
6 1 16 3 23 3 7 0 11 6 8 14 -3 7 -1 13 3 13 5 0 12 -7 15 -16 6 -17 26 -10
26 9 0 7 -4 6 -10 -3 -6 -9 -10 -10 -10 -3 0 6 5 15 10 18 6 3 10 11 10 16 0
6 -4 8 -8 5 -4 -2 -7 11 -7 29 0 30 2 32 16 19 15 -13 16 -12 11 11 -4 25 -22
46 -22 26 0 -16 -17 -13 -23 3 -3 7 0 13 6 13 41 -1 49 3 37 18 -6 8 -9 19 -5
25 9 15 -4 12 -20 -4 -8 -7 -11 -17 -7 -21 4 -5 2 -5 -4 -2 -6 4 -11 21 -10
39 1 21 -6 40 -19 51 -11 10 -14 15 -6 11 9 -4 19 0 28 12 8 11 17 15 21 9 11
-16 32 -16 26 -1 -3 8 0 17 7 22 8 4 10 3 5 -4 -4 -7 -5 -12 -2 -12 3 0 10 9
16 19 10 20 -2 24 -27 8 -10 -6 -11 -2 -4 16 6 14 8 27 5 30 -3 2 2 7 11 11
13 5 14 2 4 -16 -10 -18 -9 -20 9 -16 15 4 21 0 25 -18 2 -14 1 -27 -4 -30 -4
-2 -6 -11 -2 -19 3 -8 0 -15 -6 -15 -6 0 -11 6 -11 13 0 8 -4 7 -10 -3 -16
-24 -12 -30 15 -20 17 7 24 6 22 -1 -3 -15 31 -20 40 -7 4 7 1 8 -7 3 -10 -6
-12 -4 -7 8 4 10 2 16 -5 14 -16 -3 -18 31 -3 37 10 3 12 -1 9 -12 -4 -13 -2
-12 7 2 9 15 9 21 1 24 -7 2 -12 8 -12 14 0 6 12 2 28 -7 15 -10 21 -12 15 -4
-7 7 -13 21 -13 31 0 18 -1 18 -27 1 l-28 -17 18 21 c12 14 15 23 7 28 -15 9
-2 25 21 25 22 0 26 25 4 34 -8 3 -15 1 -15 -3 0 -5 6 -12 13 -14 7 -4 6 -6
-5 -6 -9 -1 -18 4 -20 11 -3 9 -6 9 -12 0 -4 -7 -2 -12 5 -12 8 0 8 -4 -1 -15
-7 -8 -26 -15 -42 -15 -16 0 -31 -6 -34 -15 -4 -8 -11 -15 -17 -15 -8 0 -8 3
0 11 8 8 8 20 2 36 -6 16 -5 22 1 18 6 -3 10 -1 10 5 0 6 5 8 11 4 9 -5 10 1
5 22 -6 27 -5 28 8 11 17 -22 11 -47 -12 -47 -8 0 -12 -3 -8 -7 10 -10 56 -11
56 -1 0 4 -4 8 -10 8 -5 0 -10 4 -10 10 0 5 6 7 13 4 8 -3 20 3 28 12 12 15
12 16 -9 10 -17 -6 -21 -4 -16 9 8 19 58 69 73 72 17 4 13 -14 -4 -21 -8 -3
-15 -11 -15 -17 0 -7 14 3 30 21 17 18 30 28 30 20 0 -7 3 -11 6 -7 12 12 -7
28 -21 17 -9 -8 -14 -6 -19 6 -9 23 -8 24 12 18 16 -5 16 -5 0 6 -10 6 -22 18
-28 28 -10 16 -10 15 -8 -2 3 -20 -27 -32 -38 -15 -10 16 -37 10 -30 -7 3 -9
2 -12 -5 -9 -6 4 -8 13 -5 21 3 8 1 14 -4 14 -16 0 -11 17 6 24 12 4 15 2 10
-9 -4 -10 1 -15 14 -15 11 0 20 -5 20 -11 0 -5 5 -7 11 -3 6 3 9 17 6 30 -2
14 0 27 4 30 15 9 10 26 -6 21 -8 -4 -17 -1 -21 5 -4 7 -3 8 4 4 8 -4 12 0 12
11 0 12 -8 19 -21 20 -15 1 -19 -3 -15 -13 3 -8 2 -12 -3 -9 -5 3 -13 0 -16
-6 -4 -6 2 -13 13 -16 21 -5 49 -53 32 -53 -6 0 -10 6 -10 14 0 19 -31 30 -42
14 -7 -10 -8 -9 -5 2 2 8 0 23 -5 33 -6 12 -5 16 3 15 6 -2 14 3 16 10 3 6 0
12 -6 12 -6 0 -11 8 -11 18 0 9 4 13 8 7 10 -14 46 -19 37 -5 -4 7 1 7 14 -2
12 -7 21 -20 21 -30 0 -9 6 -18 13 -21 9 -3 9 -9 -1 -26 -11 -19 -10 -22 7
-29 11 -4 19 -11 18 -16 -1 -5 6 -10 16 -12 13 -2 15 1 8 14 -7 13 -3 21 17
35 17 12 20 17 8 13 -11 -4 -23 -1 -28 6 -11 18 -10 30 2 23 6 -3 10 -1 10 5
0 7 -7 10 -15 6 -9 -3 -15 0 -15 10 0 10 6 14 15 10 8 -3 15 -1 15 3 0 5 -6
12 -12 14 -7 3 2 6 20 6 17 1 32 -3 32 -9 0 -5 5 -10 11 -10 5 0 7 5 3 12 -5
8 -2 9 9 5 14 -5 17 0 17 26 0 18 6 39 13 46 6 8 8 11 2 8 -6 -3 -11 18 -12
54 -1 39 2 59 10 59 9 0 8 3 -1 8 -8 6 -11 28 -9 70 2 34 0 62 -5 62 -4 0 -8
5 -8 11 0 5 6 7 13 3 7 -5 6 0 -3 11 -8 10 -10 16 -4 12 7 -4 14 0 17 8 4 9 1
12 -7 9 -10 -4 -13 9 -12 58 1 53 4 63 18 60 9 -1 19 2 23 8 3 5 0 7 -8 4 -8
-3 -20 2 -27 11 -11 13 -10 18 6 30 10 8 26 12 34 10 8 -3 5 3 -8 12 -21 15
-21 16 -5 29 14 11 15 13 2 9 -13 -5 -16 1 -15 29 1 35 18 52 38 40 5 -3 1
-12 -9 -19 -17 -13 -17 -14 3 -9 15 4 21 13 21 33 l0 28 -34 -19 c-18 -11 -30
-24 -27 -29 3 -5 0 -9 -5 -9 -17 0 -13 18 10 39 l20 19 -23 17 c-13 10 -16 15
-8 13 8 -3 26 -1 40 4 20 7 22 11 10 18 -20 13 -33 13 -25 0 3 -5 0 -10 -8
-10 -8 0 -17 7 -21 15 -3 8 0 15 7 15 8 0 6 4 -3 10 -12 8 -10 10 8 10 13 0
21 -4 17 -9 -3 -5 4 -12 15 -16 24 -8 45 -41 45 -74 0 -13 6 -25 13 -27 7 -1
8 0 3 2 -5 3 -8 16 -5 29 2 13 0 27 -6 30 -17 10 -11 25 8 18 14 -5 13 -3 -3
10 -11 8 -23 13 -27 11 -11 -7 -29 33 -22 50 8 21 25 10 18 -12 -5 -14 -4 -14
4 -2 6 8 7 19 3 25 -4 5 -8 20 -9 32 0 16 4 20 16 16 13 -4 12 -2 -3 10 -11 9
-24 17 -28 17 -11 0 -4 -33 8 -42 6 -4 -3 -8 -18 -8 -16 0 -26 -4 -23 -9 3 -5
-1 -11 -8 -14 -11 -4 -14 2 -14 24 1 16 5 29 10 29 5 0 6 -5 3 -10 -3 -5 1
-10 9 -10 10 0 16 9 16 21 0 16 -5 20 -20 16 -13 -3 -20 0 -20 9 0 8 6 11 16
7 9 -3 23 3 35 15 21 24 25 42 7 42 -6 0 -4 8 7 20 17 19 16 19 -11 15 -27 -5
-28 -4 -8 8 13 7 20 21 19 35 -1 13 5 27 14 32 9 5 11 10 4 10 -13 0 -11 32 3
37 13 4 9 -48 -5 -75 -12 -23 -6 -30 24 -28 22 2 67 25 49 26 -5 0 -14 -4 -20
-10 -6 -6 -13 3 -20 26 -11 33 -10 35 7 31 11 -3 17 -1 13 4 -3 5 -1 9 4 9 4
0 8 13 8 29 0 22 -3 28 -15 23 -8 -3 -10 -7 -4 -9 13 -5 5 -43 -9 -43 -6 0 -8
7 -5 14 4 9 -2 17 -13 21 -10 3 -18 14 -17 25 1 18 11 18 13 -1 1 -5 2 -12 3
-15 0 -4 8 -1 16 6 10 8 12 16 6 19 -6 4 -1 12 10 20 12 7 18 8 15 3 -3 -5 0
-15 8 -21 14 -11 26 -5 26 13 0 6 -4 5 -9 -3 -6 -9 -11 -10 -15 -2 -4 6 -4 11
0 11 4 0 -1 9 -11 20 -11 12 -13 20 -6 20 7 0 9 5 6 10 -4 6 -11 8 -16 5 -5
-4 -9 -1 -9 5 0 8 9 10 28 5 25 -6 26 -5 8 8 -11 8 -16 19 -12 26 6 9 12 9 24
-1 15 -12 16 -11 3 5 -11 14 -11 21 -3 29 9 9 12 7 12 -7 1 -11 7 -2 15 20 16
45 18 56 7 38 -11 -17 -36 1 -29 21 5 11 15 15 32 12 30 -6 34 9 4 17 -41 11
-76 -13 -70 -47 1 -5 -5 -6 -14 -2 -9 3 -19 6 -21 6 -3 0 -2 5 1 10 4 6 11 8
16 5 5 -3 6 0 3 8 -3 10 5 18 25 25 33 12 40 29 16 38 -8 4 -15 11 -15 16 0 6
6 5 15 -2 8 -7 15 -9 15 -4 0 5 6 1 13 -8 8 -10 18 -14 26 -8 10 6 8 9 -8 15
-16 5 -20 12 -17 31 3 13 8 28 11 34 4 6 3 10 -2 9 -20 -3 -25 2 -13 16 7 8 9
15 5 15 -4 0 3 9 16 19 17 14 28 16 37 9 8 -8 12 -6 12 4 0 7 -9 14 -20 15
-11 1 -20 -3 -20 -10 0 -7 -3 -8 -10 -1 -12 12 -3 44 12 44 6 0 4 8 -3 17 -10
11 -10 14 -1 9 7 -4 12 -1 12 8 0 9 -5 16 -12 16 -9 0 -9 3 0 12 8 8 15 9 20
3 4 -6 18 -11 32 -13 23 -2 23 -1 -5 11 -34 15 -35 18 -16 41 12 14 12 16 -2
11 -8 -4 -18 -1 -23 6 -4 8 -3 10 4 5 8 -4 10 -2 6 8 -4 10 0 13 13 11 10 -2
22 -4 26 -4 5 -1 5 -6 2 -11 -3 -6 -1 -10 4 -10 17 0 13 9 -22 45 -31 32 -33
32 -34 12 -3 -39 -13 -67 -23 -67 -12 0 -3 48 13 68 12 16 -5 16 -21 0 -9 -9
-12 -9 -12 3 0 15 5 17 50 21 11 1 22 8 25 16 3 8 0 10 -7 6 -8 -5 -9 -2 -5 9
3 9 2 19 -3 22 -6 4 -10 2 -10 -3 0 -5 -7 -9 -15 -9 -23 0 -18 12 10 25 23 11
27 9 36 -15 5 -14 8 -32 5 -39 -3 -8 0 -11 9 -8 8 3 11 12 8 20 -3 8 -1 14 5
14 6 0 13 -6 15 -12 5 -12 11 16 8 35 0 4 4 7 10 7 5 0 7 5 3 11 -5 8 -9 7
-14 -1 -5 -8 -15 -10 -26 -5 -11 5 -22 7 -26 7 -18 -4 -6 16 15 26 12 6 16 11
9 11 -6 1 -21 -8 -32 -19 -23 -23 -31 -25 -24 -6 3 8 1 17 -5 21 -6 3 -11 11
-11 16 0 6 5 7 10 4 6 -3 10 -1 10 4 0 6 5 11 11 11 5 0 8 -4 4 -9 -3 -5 -1
-12 4 -15 5 -3 12 1 15 10 9 24 8 26 -16 24 -45 -4 -48 -2 -38 25 5 14 6 25 1
25 -5 0 -12 8 -15 17 -4 10 -4 14 0 10 4 -4 13 1 21 11 14 16 14 16 9 0 -3
-11 0 -18 7 -18 9 0 8 -3 -1 -9 -8 -4 -13 -12 -11 -17 8 -27 64 -51 73 -30 3
7 5 7 5 -1 1 -7 6 -13 13 -13 6 0 4 8 -6 19 -10 11 -15 25 -10 32 5 8 3 10 -7
4 -8 -5 -11 -4 -6 0 4 5 0 17 -10 27 -15 17 -15 18 0 18 10 0 16 -3 14 -8 -1
-4 8 -17 20 -29 18 -18 22 -19 27 -7 3 9 10 12 16 9 5 -3 10 -1 10 4 0 14 -13
14 -27 0 -8 -8 -13 -8 -17 0 -4 6 -2 11 3 11 6 0 11 7 11 16 0 8 4 13 9 9 5
-3 13 -1 16 5 4 6 1 9 -6 8 -7 -2 -15 5 -17 14 -2 11 2 17 10 15 7 -2 10 -2 6
0 -5 3 -8 12 -8 21 -1 12 -5 10 -15 -8 -8 -14 -15 -19 -16 -12 -1 6 -2 18 -3
25 -1 6 2 15 7 18 11 8 0 29 -14 29 -6 0 -7 -5 -4 -10 3 -6 -1 -13 -9 -16 -14
-5 -14 -8 -1 -21 8 -8 15 -20 14 -26 0 -8 -2 -8 -6 1 -2 6 -10 9 -16 5 -24
-15 -49 -14 -43 2 3 9 -1 18 -9 21 -8 4 -15 10 -15 16 0 5 13 0 29 -11 33 -24
46 -27 34 -9 -4 7 -8 19 -10 27 -2 15 22 43 30 35 3 -3 15 -3 26 1 21 6 24 24
6 37 -6 5 -3 8 6 8 9 0 24 9 34 20 14 15 21 17 31 9 8 -6 11 -16 7 -22 -3 -6
-1 -7 6 -3 6 4 9 11 6 16 -3 4 2 10 9 13 12 5 13 1 4 -24 -11 -33 -22 -37 -38
-11 -10 16 -10 15 -8 -3 5 -33 31 -28 62 12 16 21 26 35 21 31 -4 -4 -14 -3
-22 3 -9 9 -17 8 -27 0 -12 -10 -17 -8 -25 8 -8 14 -8 22 0 26 6 5 4 12 -8 22
-10 8 -12 11 -4 7 9 -5 12 -3 7 4 -8 13 -38 17 -33 4 1 -4 -1 -8 -5 -10 -17
-5 -20 -1 -8 13 7 8 21 15 31 15 11 0 18 6 16 13 -1 6 5 12 13 12 8 0 16 -8
18 -19 3 -11 0 -16 -7 -12 -12 8 -14 -3 -3 -20 4 -7 15 -8 27 -3 18 7 19 8 1
8 -18 1 -18 2 -1 28 14 21 15 25 2 20 -8 -3 -19 -1 -25 5 -8 8 -15 8 -25 0 -8
-7 -18 -8 -22 -4 -5 4 -5 1 -1 -5 4 -8 2 -14 -6 -14 -50 -5 -70 -4 -75 6 -4 5
-3 7 2 3 12 -11 35 25 24 38 -10 13 26 12 38 -1 5 -4 3 -5 -3 -2 -7 4 -14 -3
-16 -18 -6 -31 -1 -31 37 0 25 21 27 25 12 31 -9 3 -17 12 -17 19 0 16 19 30
28 20 3 -3 1 -10 -6 -14 -9 -5 -5 -11 12 -19 16 -7 28 -8 31 -2 4 6 -3 10 -14
10 -14 0 -19 5 -14 16 4 11 8 12 13 4 5 -8 11 -6 20 5 10 12 16 13 26 4 11 -9
14 -8 14 1 0 6 6 10 13 7 6 -2 20 0 30 5 10 5 17 5 17 -1 0 -5 -16 -15 -35
-21 -19 -6 -33 -16 -30 -21 4 -5 2 -9 -3 -9 -5 0 -9 -7 -9 -15 0 -8 7 -15 14
-15 8 0 11 4 8 10 -3 5 -1 10 4 10 20 0 26 2 38 12 7 5 18 6 25 2 10 -5 10 -4
1 6 -10 11 -15 11 -28 0 -25 -21 -17 1 10 26 19 18 52 28 142 44 1177 210
2245 714 3148 1485 164 141 511 482 650 640 1418 1614 1963 3818 1455 5890
-246 1004 -702 1904 -1369 2700 -141 169 -541 575 -701 712 -311 266 -647 508
-962 693 -60 35 -108 67 -108 72 0 4 -9 8 -20 8 -11 0 -29 9 -39 19 -11 11
-23 16 -27 13 -4 -4 -4 1 -1 11 4 11 1 17 -9 17 -9 0 -13 -5 -9 -12 4 -7 0 -5
-8 4 -8 10 -16 15 -20 12 -3 -3 -22 4 -44 15 -35 19 -36 20 -8 14 17 -3 32 -9
35 -13 3 -4 11 -2 17 6 16 17 0 28 -30 20 -12 -3 -29 -1 -37 4 -8 5 -10 10 -5
10 6 0 11 9 12 20 1 11 -3 18 -8 14 -5 -3 -8 0 -7 7 2 7 -7 18 -19 24 -14 6
-23 18 -22 30 1 15 2 16 6 3 6 -24 33 -31 40 -11 4 9 1 19 -5 21 -7 2 -9 8 -6
13 3 6 11 6 20 -2 7 -6 11 -16 7 -23 -4 -6 1 -5 10 3 11 9 17 10 17 2 0 -6
-11 -16 -25 -23 -13 -6 -22 -15 -18 -21 3 -5 9 -3 14 4 7 11 9 11 9 -1 0 -8
10 4 22 27 21 41 22 42 48 28 15 -8 30 -21 33 -29 4 -10 13 -13 23 -9 13 5 15
3 9 -7 -5 -9 -4 -11 4 -6 7 5 71 -27 154 -75 1709 -987 2898 -2656 3262 -4574
68 -360 102 -675 112 -1027 l6 -238 1989 0 1988 0 0 48 c-1 280 -34 831 -71
1157 -384 3437 -2413 6474 -5459 8170 -339 188 -822 418 -1190 565 -85 34
-166 67 -180 73 -14 5 -29 9 -34 8 -5 -1 -5 6 -2 16 5 13 4 15 -4 7 -15 -15
-50 -6 -50 12 0 8 -5 14 -11 14 -5 0 -7 -4 -4 -10 3 -5 1 -10 -5 -10 -7 0 -10
6 -7 13 2 6 12 12 23 12 14 0 18 7 17 23 -2 14 3 22 12 22 8 0 13 -6 11 -12
-1 -7 -1 -10 1 -5 3 4 10 4 16 0 7 -3 1 6 -12 20 -24 27 -51 36 -51 17 0 -5 8
-7 18 -3 15 5 14 4 -2 -9 -12 -9 -16 -20 -11 -28 5 -9 4 -11 -3 -6 -17 10 -15
56 3 62 8 4 15 12 15 20 0 8 5 14 11 14 5 0 8 4 4 9 -3 5 -1 12 5 16 5 3 10
13 10 21 0 20 -25 12 -26 -7 0 -8 -4 -25 -8 -38 -6 -17 -11 -20 -19 -12 -9 9
-8 14 2 20 8 5 12 18 8 30 -3 11 0 19 5 18 6 -1 11 13 10 31 0 50 -1 51 -21
49 -11 0 -17 -5 -15 -9 3 -4 2 -13 -2 -19 -5 -8 -13 -4 -26 12 -11 13 -18 17
-15 9 2 -8 -1 -20 -8 -27 -9 -8 -12 -5 -11 16 1 18 7 28 19 28 9 1 17 -4 17
-10 1 -7 9 -2 19 11 11 12 24 22 29 22 17 0 42 -46 31 -57 -12 -12 -1 -43 15
-43 7 0 11 23 10 65 0 39 4 64 9 62 13 -4 18 -35 6 -43 -15 -9 -10 -24 6 -18
16 6 16 38 2 62 -11 16 0 32 17 26 7 -3 12 -15 11 -28 -2 -14 2 -23 11 -23 10
0 11 4 4 11 -14 14 -13 26 4 26 8 0 17 8 21 18 5 14 4 15 -6 5 -15 -15 -33
-17 -24 -4 3 5 0 13 -6 17 -7 4 -9 3 -5 -4 4 -6 -1 -10 -11 -10 -10 1 -28 -2
-40 -6 -15 -5 -23 -3 -23 4 0 6 5 8 10 5 9 -5 12 1 9 21 0 4 5 10 11 14 8 5 7
9 -3 13 -11 4 -15 0 -12 -14 2 -11 0 -17 -5 -14 -5 3 -7 16 -4 28 3 19 -3 27
-31 40 -19 9 -37 12 -40 7 -3 -5 -13 -6 -21 -3 -12 4 -13 8 -3 14 8 5 -2 10
-27 15 -21 3 -44 11 -51 16 -7 6 -15 3 -22 -9 -11 -17 -11 -17 -9 1 4 22 -14
29 -322 122 -852 259 -1764 419 -2640 463 -224 12 -647 19 -830 15z m3760
-614 c0 -5 -5 -10 -11 -10 -5 0 -7 5 -4 10 3 6 8 10 11 10 2 0 4 -4 4 -10z
m107 -15 c0 -8 -4 -12 -9 -9 -5 3 -6 10 -3 15 9 13 12 11 12 -6z m-36 -12 c13
-16 12 -17 -3 -4 -10 7 -18 15 -18 17 0 8 8 3 21 -13z m134 -13 c3 -6 -1 -7
-9 -4 -18 7 -21 14 -7 14 6 0 13 -4 16 -10z m-114 -23 c-10 -9 -11 -8 -5 6 3
10 9 15 12 12 3 -3 0 -11 -7 -18z m110 -10 c1 -7 1 -16 0 -21 -1 -5 1 -22 4
-38 6 -25 9 -27 23 -16 13 11 15 11 10 -3 -4 -9 -2 -21 4 -27 6 -6 6 -12 -1
-16 -5 -4 -15 3 -21 14 -6 11 -16 17 -22 14 -6 -4 -8 -3 -4 4 4 7 -1 10 -14 9
-11 -1 -20 -5 -20 -9 0 -4 -4 -8 -9 -8 -5 0 -8 8 -6 18 1 9 8 16 14 15 6 -2
11 8 11 22 0 25 -18 30 -32 10 -4 -6 -8 -2 -8 8 0 9 7 17 15 17 8 0 15 9 15
20 0 18 3 19 20 10 11 -6 21 -16 21 -23z m-106 -76 c-9 -8 -36 -10 -30 -2 2 4
11 8 20 8 8 0 13 -3 10 -6z m30 -1 c3 -5 1 -10 -4 -10 -6 0 -11 5 -11 10 0 6
2 10 4 10 3 0 8 -4 11 -10z m-45 -50 c0 -5 -2 -10 -4 -10 -3 0 -8 5 -11 10 -3
6 -1 10 4 10 6 0 11 -4 11 -10z m99 -84 c-22 -20 -23 -20 -6 0 9 11 14 23 11
27 -3 3 -2 12 2 19 7 10 9 8 12 -6 2 -10 -6 -28 -19 -40z m-76 -11 c-7 -21
-12 -19 -10 4 0 11 5 18 9 15 4 -3 5 -11 1 -19z m33 -14 c-3 -5 3 -11 14 -14
10 -3 21 0 23 7 2 6 4 -4 3 -21 -1 -24 -6 -33 -18 -33 -10 0 -18 7 -18 16 0 9
5 13 13 9 6 -4 3 1 -7 9 -18 14 -21 14 -37 0 -15 -13 -17 -13 -23 2 -4 11 -2
15 8 11 8 -3 20 1 26 9 14 15 24 19 16 5z m-113 -38 c-7 -2 -19 -2 -25 0 -7 3
-2 5 12 5 14 0 19 -2 13 -5z m-83 -29 c0 -8 -5 -12 -10 -9 -6 4 -8 11 -5 16 9
14 15 11 15 -7z m160 6 c0 -5 -5 -10 -11 -10 -5 0 -7 5 -4 10 3 6 8 10 11 10
2 0 4 -4 4 -10z m-6 -64 c-4 -10 -1 -16 10 -16 10 0 13 6 9 18 -5 14 -3 13 10
-3 14 -18 16 -18 22 -3 4 9 4 22 0 27 -3 7 0 8 9 5 11 -4 13 -11 6 -23 -16
-30 -33 -39 -58 -30 -18 7 -22 14 -17 30 5 16 4 19 -5 14 -8 -5 -11 -4 -6 3 3
6 2 13 -4 17 -5 3 -10 11 -10 17 0 6 9 -1 20 -15 11 -14 17 -32 14 -41z
m-3085 -432 c5 -5 -29 -1501 -35 -1531 -4 -22 -9 -23 -104 -23 l-100 0 0 53
c-1 111 31 1337 36 1426 l6 93 97 -7 c53 -4 98 -9 100 -11z m-2174 -140 c179
-43 333 -181 413 -371 60 -142 88 -406 63 -584 -41 -279 -187 -478 -410 -555
-82 -28 -184 -39 -493 -49 l-196 -7 -6 43 c-3 24 -14 271 -26 549 -11 278 -22
537 -25 575 -2 39 -7 143 -11 231 l-6 161 53 6 c30 4 146 9 259 13 113 4 207
8 208 9 7 6 119 -7 177 -21z m4340 -99 c171 -40 353 -172 415 -300 30 -63 44
-157 36 -238 -6 -57 -10 -67 -24 -63 -10 3 -53 10 -97 17 l-80 12 3 71 c7 134
-57 238 -182 297 -113 53 -231 47 -358 -17 -148 -75 -328 -324 -409 -564 -115
-344 51 -607 401 -635 76 -7 87 -5 101 11 26 31 189 326 184 334 -2 4 -54 35
-115 69 l-110 62 32 57 c52 95 33 97 247 -24 145 -82 190 -112 186 -124 -5
-13 -373 -670 -380 -678 -2 -2 -22 6 -45 18 l-42 22 4 49 5 49 -81 0 c-239 1
-465 138 -569 346 -46 92 -59 166 -55 304 4 107 9 138 36 217 128 376 389 659
657 713 65 13 175 11 240 -5z m1834 -955 c58 -32 79 -49 75 -60 -4 -13 -709
-1249 -753 -1321 l-16 -26 -83 47 c-45 26 -85 50 -88 53 -7 7 767 1358 777
1355 4 -2 43 -23 88 -48z m1756 -1201 c204 -194 371 -355 373 -358 1 -4 -24
-32 -55 -63 l-58 -57 -148 141 -148 141 -32 -31 c-18 -17 -234 -245 -482 -505
l-450 -474 -78 70 -78 70 79 81 c187 191 882 926 882 933 0 5 -65 70 -145 146
l-145 138 52 60 c29 32 55 59 58 59 3 0 172 -158 375 -351z m-12339 -296 c126
-136 319 -344 428 -463 110 -118 202 -215 206 -215 4 0 96 83 206 184 l199
183 57 -63 c44 -49 54 -67 45 -75 -39 -36 -310 -284 -401 -369 -155 -142 -143
-136 -185 -89 -32 36 -340 371 -707 769 -108 117 -125 140 -109 145 13 3 21
15 22 33 1 15 -2 25 -7 22 -6 -3 -18 -1 -27 5 -16 9 -15 10 5 5 16 -5 22 -2
22 9 0 9 -6 15 -12 14 -8 -2 -12 5 -10 16 2 11 -1 15 -7 11 -6 -3 -11 -1 -11
4 0 6 7 11 16 11 9 0 12 5 8 12 -5 8 -2 9 9 5 13 -5 17 -1 17 16 0 18 -2 19
-10 7 -8 -13 -10 -12 -10 3 0 11 -4 15 -12 11 -7 -4 -8 -3 -4 5 4 6 12 9 17 6
5 -4 9 -1 9 5 0 7 7 10 18 6 16 -6 16 -5 0 7 -14 11 -15 27 -3 27 1 0 105
-111 231 -247z m-256 38 c0 -6 -4 -12 -8 -15 -5 -3 -9 1 -9 9 0 8 4 15 9 15 4
0 8 -4 8 -9z m9279 -988 c2 -2 -3 -3 -11 -3 -9 0 -19 7 -22 16 -6 15 -4 15 11
3 10 -7 20 -15 22 -16z m18 -39 c3 -9 2 -19 -3 -23 -8 -5 -11 -17 -17 -73 -2
-23 -18 -7 -20 21 -1 11 -6 21 -11 21 -5 0 -6 3 -3 6 4 4 13 1 22 -6 12 -10
15 -10 15 3 0 9 -6 22 -14 30 -11 11 -12 17 -3 26 15 15 27 14 34 -5z m93 -14
c8 -16 8 -20 -2 -18 -17 4 -28 20 -22 30 8 12 12 10 24 -12z m-147 -83 c4 3 7
4 7 0 0 -18 -21 -14 -30 5 -10 21 -10 21 3 6 8 -10 17 -15 20 -11z m77 -12
c-7 -8 -17 -15 -22 -15 -11 0 14 29 26 30 5 0 3 -7 -4 -15z m7 -30 c0 -8 -4
-15 -9 -15 -10 0 -11 14 -1 23 9 10 10 9 10 -8z m4803 -397 c44 -77 79 -145
78 -149 -5 -13 -1120 -1159 -1128 -1159 -4 0 -29 37 -54 82 l-46 81 22 26 c12
14 82 87 155 161 l133 135 -141 245 c-77 135 -143 248 -147 252 -4 4 -104 -17
-222 -47 -118 -30 -215 -53 -216 -52 0 1 -22 40 -48 85 -26 46 -45 86 -42 89
5 5 1538 390 1563 392 6 1 48 -63 93 -141z m-7920 -288 c-14 -10 -33 -26 -42
-34 -10 -9 -21 -16 -25 -16 -5 0 -23 -18 -42 -40 -18 -22 -37 -37 -41 -35 -12
7 -54 -17 -81 -47 -14 -15 -31 -28 -38 -30 -21 -5 -58 -42 -53 -52 3 -5 0 -6
-6 -2 -7 4 -23 -4 -37 -18 -24 -24 -38 -30 -58 -27 -5 1 -6 -3 -2 -9 3 -5 -5
-14 -18 -19 -14 -6 -27 -16 -30 -23 -4 -10 -8 -10 -17 2 -10 13 -11 13 -6 -2
3 -10 1 -18 -4 -18 -14 0 -85 -72 -82 -83 2 -6 -2 -6 -11 1 -10 9 -17 7 -29
-8 -9 -10 -15 -21 -12 -24 2 -3 -1 -2 -7 3 -8 6 -23 -2 -45 -24 -18 -18 -35
-30 -38 -27 -3 3 -6 0 -6 -7 0 -7 -4 -10 -9 -7 -5 4 -14 -6 -19 -21 -6 -16
-11 -22 -11 -15 -1 10 -9 7 -30 -7 -16 -12 -32 -21 -35 -21 -3 0 -22 -17 -42
-37 -20 -21 -32 -31 -28 -23 4 8 -4 5 -18 -8 -13 -12 -28 -19 -31 -15 -4 3 -7
1 -7 -5 0 -7 -6 -12 -14 -12 -9 0 -13 -7 -11 -20 2 -11 1 -19 -3 -19 -25 4
-45 -4 -69 -28 -15 -16 -36 -32 -46 -38 -11 -5 -19 -14 -18 -19 1 -4 -18 -18
-44 -30 -25 -12 -42 -25 -38 -29 3 -4 -2 -7 -12 -7 -10 0 -30 -13 -45 -28 -15
-16 -34 -32 -44 -35 -9 -4 -16 -13 -16 -22 0 -8 -4 -15 -10 -15 -5 0 -10 5
-10 12 0 6 -16 -5 -35 -25 -19 -19 -44 -39 -56 -42 -17 -6 -19 -9 -8 -16 10
-6 8 -9 -8 -9 -13 0 -23 -4 -23 -10 0 -5 -7 -10 -16 -10 -9 0 -12 -5 -8 -12 4
-7 4 -10 0 -6 -11 10 -85 -31 -97 -54 -6 -11 -13 -18 -15 -15 -5 4 -42 -25
-98 -77 -17 -17 -40 -31 -50 -31 -11 -1 -22 -7 -24 -13 -2 -7 -10 -12 -18 -12
-9 0 -12 -4 -9 -10 3 -5 -1 -10 -10 -10 -8 0 -36 -20 -61 -45 -26 -24 -55 -47
-65 -50 -11 -4 -17 -11 -14 -16 3 -5 -2 -6 -11 -2 -13 5 -15 3 -9 -7 6 -10 4
-12 -9 -7 -12 5 -19 0 -25 -16 -5 -12 -11 -21 -15 -19 -15 6 -26 1 -26 -12 0
-8 -5 -18 -12 -22 -7 -4 -8 -3 -4 4 10 16 -2 15 -19 -2 -8 -7 -11 -16 -8 -20
4 -3 -2 -6 -12 -6 -10 0 -24 -8 -32 -17 -8 -10 -12 -12 -8 -5 11 21 -1 13 -56
-38 -30 -27 -57 -50 -61 -50 -18 0 -24 -4 -36 -22 -7 -10 -18 -15 -24 -12 -7
5 -9 1 -5 -9 4 -11 2 -14 -9 -10 -8 3 -14 -1 -14 -11 0 -9 -5 -15 -12 -14 -6
2 -17 -8 -25 -22 -7 -14 -13 -19 -13 -12 0 7 -4 11 -9 8 -5 -3 -168 72 -362
167 l-354 174 45 20 c25 11 594 274 1265 585 1701 788 1829 848 1835 848 3 -1
-6 -9 -20 -20z m-6250 -179 c0 -5 -7 -12 -16 -15 -14 -5 -15 -4 -4 9 14 17 20
19 20 6z m-34 -56 c-9 -9 -16 -13 -16 -8 0 12 22 34 28 28 2 -2 -3 -11 -12
-20z m15335 -1391 c12 -55 18 -99 13 -103 -5 -5 -133 -38 -284 -75 -556 -133
-1053 -256 -1057 -260 -2 -2 25 -122 60 -267 l63 -264 -79 -18 c-43 -11 -80
-17 -83 -15 -11 12 -175 721 -168 728 5 4 304 78 664 165 360 86 696 167 745
180 50 13 93 24 97 24 4 1 17 -42 29 -95z m-12116 -173 c44 -21 148 -68 231
-105 145 -65 178 -89 126 -93 -13 0 -29 -6 -34 -11 -8 -8 -4 -10 13 -7 21 4
21 3 -3 -7 -16 -7 -28 -15 -28 -19 0 -4 -9 -6 -20 -4 -11 2 -23 -1 -26 -7 -5
-7 -2 -8 7 -4 8 4 5 0 -5 -8 -11 -9 -26 -16 -35 -16 -8 0 -12 -3 -8 -6 7 -7
-33 -54 -47 -54 -6 0 -4 5 4 10 12 8 12 10 1 10 -7 0 -24 -11 -37 -25 -13 -14
-28 -25 -34 -25 -6 0 -9 -4 -6 -8 2 -4 1 -14 -5 -22 -6 -10 -9 -11 -9 -2 0 6
-5 12 -11 12 -5 0 -8 -4 -4 -9 3 -5 1 -12 -5 -16 -6 -4 -7 -11 -4 -17 4 -7 2
-8 -4 -4 -7 4 -12 1 -12 -6 0 -11 -2 -11 -9 0 -6 10 -10 10 -21 -3 -7 -9 -33
-25 -58 -36 -34 -16 -42 -23 -31 -30 12 -7 12 -9 0 -9 -7 0 -27 -15 -44 -32
-16 -18 -24 -25 -17 -15 9 12 9 17 1 17 -6 0 -14 -7 -17 -15 -4 -8 -10 -13
-14 -10 -5 3 -11 -4 -15 -15 -3 -11 -13 -20 -21 -20 -12 0 -14 53 -14 354 l0
355 68 -31 c37 -17 103 -47 147 -67z m8465 -111 c0 -5 -2 -10 -4 -10 -3 0 -8
5 -11 10 -3 6 -1 10 4 10 6 0 11 -4 11 -10z m90 -10 c0 -5 -2 -10 -4 -10 -3 0
-8 5 -11 10 -3 6 -1 10 4 10 6 0 11 -4 11 -10z m-33 -25 c0 -11 -4 -12 -14 -4
-7 6 -13 13 -13 15 0 2 6 4 13 4 8 0 14 -7 14 -15z m47 -6 c-3 -6 0 -15 7 -20
9 -6 10 -9 2 -9 -15 0 -26 17 -18 30 3 6 8 10 11 10 3 0 2 -5 -2 -11z m-2116
-76 c1 -43 5 -166 8 -274 5 -162 4 -197 -7 -202 -167 -69 -885 -357 -891 -357
-4 0 -8 54 -8 120 0 96 3 120 14 120 8 0 16 7 20 15 3 8 12 15 21 15 8 0 15 5
15 10 0 6 5 10 11 10 7 0 25 13 40 30 16 16 32 30 37 30 6 1 34 22 94 73 12 9
25 17 29 17 9 0 45 28 81 63 10 9 20 16 22 15 7 -5 106 63 106 73 0 5 11 14
25 19 14 5 25 13 25 17 0 5 20 19 45 32 25 13 43 26 41 29 -6 5 87 69 93 64 2
-2 12 10 22 27 10 17 22 30 26 29 13 -3 81 42 87 57 3 9 12 12 21 9 9 -4 15
-3 14 2 -2 13 1 34 5 34 2 0 4 -35 4 -77z m1685 62 c-3 -9 -8 -14 -10 -11 -3
3 -2 9 2 15 9 16 15 13 8 -4z m478 -27 c11 -21 11 -22 -4 -9 -10 7 -17 17 -17
22 0 15 9 10 21 -13z m-83 -18 c1 -11 2 -34 3 -50 2 -22 6 -29 16 -25 8 3 19
5 24 5 5 0 1 10 -11 22 -11 12 -20 24 -20 27 0 11 50 29 56 20 10 -16 -7 -30
-29 -23 -19 6 -20 5 -8 -10 18 -21 28 -20 48 3 19 23 35 19 26 -6 -4 -11 -3
-14 5 -9 8 5 10 2 6 -8 -4 -10 -1 -16 9 -16 8 0 18 -7 21 -16 4 -10 2 -13 -6
-8 -8 5 -9 2 -5 -9 3 -10 2 -17 -4 -17 -6 0 -7 -5 -3 -11 5 -8 10 -6 16 6 9
16 11 16 22 -3 49 -87 75 -145 70 -154 -4 -6 -3 -8 3 -5 5 3 44 -65 86 -151
263 -543 461 -1189 552 -1807 50 -339 59 -483 60 -905 0 -415 -7 -529 -51
-859 -122 -908 -451 -1797 -953 -2576 -429 -664 -1000 -1262 -1644 -1718 -908
-645 -1939 -1027 -3080 -1144 -218 -22 -886 -25 -1102 -5 -686 65 -1290 213
-1920 472 -171 71 -564 267 -740 370 -1018 597 -1872 1491 -2402 2518 -46 89
-80 162 -76 162 4 0 1 5 -7 10 -10 6 -11 10 -2 10 6 0 12 8 11 18 0 10 -3 12
-6 5 -2 -7 -9 -13 -15 -13 -6 0 -8 7 -4 15 3 8 1 15 -4 15 -13 0 -50 74 -52
105 -1 14 -5 25 -9 25 -4 0 -5 10 -1 22 l5 22 8 -22 c5 -12 14 -22 20 -22 8 0
8 -4 -1 -15 -9 -10 -9 -15 -1 -15 6 0 12 5 12 10 1 6 2 15 3 20 0 6 7 15 15
19 7 5 11 13 7 19 -3 5 2 9 11 8 10 0 19 7 20 19 4 19 3 19 -8 1 -9 -14 -13
-16 -19 -5 -6 9 -10 6 -15 -13 -4 -15 -13 -29 -20 -32 -11 -4 -12 0 -5 20 13
34 13 36 -7 25 -13 -6 -22 -5 -31 5 -11 12 -10 14 3 14 8 0 23 15 32 34 14 30
18 33 31 20 8 -8 17 -12 20 -9 4 3 1 10 -6 14 -10 6 -10 10 2 20 20 17 53 5
60 -21 8 -32 -2 -35 -13 -4 -10 24 -41 37 -41 16 0 -5 7 -7 15 -4 8 4 15 1 15
-6 0 -6 -4 -8 -10 -5 -5 3 -10 2 -10 -4 0 -5 3 -11 8 -14 4 -2 1 -2 -5 -1 -7
2 -13 -2 -13 -8 0 -7 -4 -7 -13 0 -8 7 -18 7 -27 2 -8 -6 -11 -10 -6 -10 6 0
1 -7 -10 -15 -19 -15 -19 -15 1 -12 11 2 30 8 42 15 31 17 52 15 48 -5 -1 -10
2 -27 7 -37 9 -16 7 -18 -6 -13 -9 4 -16 2 -16 -2 0 -19 27 -18 51 1 24 20 24
20 2 15 -13 -3 -23 -1 -23 4 0 5 9 9 20 9 17 0 19 3 11 19 -9 16 -6 21 20 34
23 11 27 16 15 20 -9 4 -16 11 -16 17 0 12 22 9 32 -5 4 -6 8 -2 8 8 0 9 5 17
11 17 6 0 9 -7 5 -15 -3 -9 0 -15 9 -15 8 0 15 8 15 18 0 14 2 15 9 2 6 -8 7
-18 5 -22 -3 -4 0 -8 6 -8 6 0 8 -4 5 -10 -3 -5 0 -10 7 -10 10 0 9 -3 -2 -9
-17 -12 -33 -4 -24 11 4 7 2 8 -4 4 -7 -4 -12 -3 -12 2 0 5 -7 9 -15 9 -8 0
-15 -4 -15 -9 0 -4 -7 -8 -15 -8 -8 0 -15 -5 -15 -11 0 -5 4 -8 9 -4 5 3 13 0
16 -6 4 -5 13 -8 21 -5 8 3 14 0 14 -7 0 -8 3 -8 9 2 7 11 11 10 19 -5 9 -15
12 -12 31 25 14 26 26 39 34 35 7 -4 8 -3 4 2 -5 5 -13 9 -19 9 -6 0 -17 10
-25 22 -14 20 -13 21 7 16 20 -5 21 -4 9 16 -8 11 -17 21 -22 21 -4 0 -5 -5
-2 -10 3 -5 1 -10 -4 -10 -6 0 -11 7 -11 15 0 17 23 20 50 5 13 -7 19 -6 24 6
3 9 1 14 -7 12 -7 -2 -12 1 -12 7 0 12 23 16 30 4 3 -4 -1 -21 -9 -37 -8 -16
-12 -33 -8 -37 4 -5 2 -5 -5 -1 -6 3 -14 2 -18 -4 -3 -5 3 -10 14 -10 14 0 21
6 21 20 0 11 5 20 11 20 5 0 7 6 4 13 -4 6 1 3 9 -7 15 -18 20 -38 17 -58 0
-5 3 -8 8 -8 15 0 22 -33 9 -43 -9 -6 -8 -7 5 -3 15 5 19 0 16 -20 0 -4 3 -10
8 -13 4 -3 35 -60 68 -126 285 -569 684 -1111 1154 -1567 788 -764 1774 -1290
2854 -1523 613 -132 1267 -163 1907 -89 1015 115 2022 516 2833 1128 1369
1031 2203 2555 2337 4271 14 180 14 669 0 850 -57 740 -234 1409 -550 2087
-64 137 -84 190 -76 198 8 8 7 9 -6 5 -13 -5 -22 4 -38 34 -11 23 -17 41 -14
41 4 0 -1 10 -12 21 -14 16 -15 23 -6 26 21 8 13 29 -15 39 -19 6 -27 16 -27
36 -1 14 2 24 6 22 4 -3 8 0 8 6 0 6 -10 15 -22 20 -13 5 -17 9 -10 9 6 1 12
6 12 11 0 6 -10 8 -23 5 -17 -5 -24 -2 -24 9 0 9 4 16 9 16 4 0 8 -4 8 -10 0
-5 6 -7 13 -4 8 3 20 -2 27 -11 7 -8 16 -15 21 -15 17 0 9 25 -12 38 l-21 14
22 15 c12 8 24 12 27 9 4 -3 2 -6 -4 -6 -5 0 -10 -7 -10 -15 0 -23 12 -18 25
10 10 21 9 25 -3 25 -8 0 -15 4 -15 8 0 10 30 12 31 3 0 -3 2 -16 5 -28 2 -13
0 -23 -5 -23 -5 0 -12 -12 -16 -27 -3 -15 -12 -31 -18 -35 -9 -6 -9 -8 0 -8 6
0 19 9 27 21 9 13 19 18 27 13 9 -5 10 -2 6 9 -5 14 0 17 24 17 20 0 29 4 26
13 -2 6 0 21 6 31 7 15 6 22 -6 31 -11 7 -13 16 -6 26 7 11 9 11 9 -4 0 -11 4
-15 12 -11 6 4 8 3 4 -4 -3 -6 -2 -13 4 -17 6 -4 7 -12 3 -18 -13 -21 -12 -39
2 -33 9 3 12 0 8 -9 -3 -8 -9 -12 -14 -9 -5 3 -12 -1 -15 -9 -6 -16 -34 -19
-34 -3 0 17 -29 -28 -30 -46 0 -11 5 -15 15 -12 8 4 15 1 15 -4 0 -6 -9 -9
-20 -7 -11 2 -23 -1 -26 -7 -4 -6 -3 -8 4 -4 5 3 12 0 15 -6 3 -10 7 -10 21 1
10 9 14 21 10 33 -4 14 0 21 15 25 12 3 21 11 21 18 0 10 5 11 25 2 23 -11 23
-13 8 -25 -9 -6 -25 -9 -36 -6 -17 5 -17 4 -7 -18 16 -29 25 -38 17 -16 -7 19
16 31 31 16 6 -6 12 -6 16 1 4 6 2 11 -4 11 -6 0 -8 5 -5 10 3 6 15 10 26 10
17 0 18 -3 7 -22 -7 -13 -19 -28 -27 -34 -11 -9 -12 -12 -1 -19 9 -6 11 -4 5
5 -6 10 -3 12 13 8 19 -5 22 -2 22 24 0 16 4 27 9 23 5 -3 13 -1 16 5 4 6 1 9
-5 8 -7 -2 -21 12 -31 30 -11 18 -15 31 -10 28 5 -4 12 -2 15 3 4 5 2 12 -4
16 -5 3 -10 11 -10 18 0 28 23 -14 24 -44 1 -32 26 -56 26 -25 0 9 -4 16 -10
16 -5 0 -9 8 -7 18 1 9 7 17 12 17 6 0 9 -8 8 -17 -2 -10 2 -18 7 -18 6 0 10
5 10 11 0 5 5 7 11 3 8 -5 8 -1 0 13 -6 11 -8 23 -5 25 2 3 -9 8 -25 11 -24 5
-29 10 -24 23 4 10 2 15 -3 11 -14 -8 -40 10 -30 20 5 4 11 2 13 -5 3 -6 9 -9
14 -6 6 4 6 11 -1 19 -10 12 -4 45 9 45 4 0 8 -9 9 -20z m-100 -4 c-7 -8 -15
-12 -17 -11 -5 6 10 25 20 25 5 0 4 -6 -3 -14z m-69 -49 c1 -5 -3 -5 -9 -2 -5
3 -10 16 -9 28 0 21 1 21 9 2 5 -11 9 -24 9 -28z m111 -29 c0 -5 -7 -3 -15 6
-8 8 -15 18 -15 22 0 3 7 1 15 -6 8 -7 15 -17 15 -22z m-183 -4 c-3 -3 -12 -4
-19 -1 -8 3 -5 6 6 6 11 1 17 -2 13 -5z m110 -9 c0 -14 -10 -19 -32 -16 -5 1
-2 -5 9 -13 18 -15 18 -15 -1 -13 -12 0 -20 9 -21 25 -2 21 0 23 13 12 12 -10
15 -10 15 4 0 9 4 16 8 16 5 0 9 -7 9 -15z m-142 -6 c11 -16 1 -19 -13 -3 -7
8 -8 14 -3 14 5 0 13 -5 16 -11z m221 -26 c1 -12 4 -28 7 -37 7 -18 2 -19 -28
-6 -11 5 -15 9 -8 9 12 1 12 18 0 37 -3 6 -3 14 0 18 12 12 28 0 29 -21z
m-3196 -708 c0 -8 -4 -15 -10 -15 -5 0 -7 7 -4 15 4 8 8 15 10 15 2 0 4 -7 4
-15z m-3440 -3732 l0 -1208 -453 -188 c-248 -103 -455 -187 -459 -187 -5 0 -8
478 -8 1063 0 1052 0 1063 20 1080 11 9 25 17 30 17 6 0 10 4 10 9 0 5 9 13
20 16 11 4 18 10 15 15 -3 4 5 10 18 14 12 3 34 17 49 31 15 14 31 25 36 25 5
0 19 11 32 25 13 14 27 25 31 25 4 0 20 11 35 25 14 13 30 22 35 19 5 -3 9 -1
9 3 0 9 113 93 124 93 6 0 37 25 84 68 14 12 29 22 34 22 5 0 7 4 3 9 -5 9 32
27 48 23 5 -1 6 1 3 6 -6 9 23 35 45 40 7 2 17 9 21 15 4 7 8 8 8 4 0 -5 7 -2
15 5 8 7 21 19 30 26 8 7 12 19 8 25 -4 7 0 6 10 -2 9 -7 17 -9 17 -4 0 6 18
22 40 37 23 15 38 31 35 36 -5 8 13 16 43 19 9 1 12 -247 12 -1206z m-1208
-775 l3 -1102 1182 -526 1183 -525 0 -419 c0 -331 -3 -417 -12 -413 -7 3 -467
213 -1023 466 -555 254 -1274 582 -1597 729 l-587 267 -1 1001 0 1001 40 27
c22 14 40 31 40 36 0 6 9 10 20 10 11 0 20 4 20 10 0 5 12 16 28 24 15 8 42
28 60 45 17 17 32 29 32 26 0 -5 10 3 61 50 9 8 20 15 26 15 16 0 83 56 76 64
-3 3 3 6 14 6 12 0 23 3 25 8 4 9 58 47 81 55 9 3 17 14 17 22 0 9 4 14 8 11
5 -3 29 13 53 35 54 48 68 60 71 59 11 -4 47 18 70 42 15 15 32 28 38 28 5 0
10 5 10 10 0 6 7 10 15 10 9 0 18 7 21 15 4 8 10 15 15 15 5 0 10 -468 11
-1102z m-3055 96 c-3 -3 -12 -4 -19 -1 -8 3 -5 6 6 6 11 1 17 -2 13 -5z m-19
-148 c-7 -8 -15 -12 -17 -11 -5 6 10 25 20 25 5 0 4 -6 -3 -14z m-97 -23 c13
-16 12 -17 -3 -4 -10 7 -18 15 -18 17 0 8 8 3 21 -13z m95 -12 c-3 -5 1 -11 9
-15 8 -3 15 -10 15 -16 0 -12 -37 -13 -44 -1 -4 5 4 7 16 4 22 -6 22 -6 -2 15
-21 18 -22 21 -7 22 10 0 16 -4 13 -9z m186 -8 c-10 -4 -10 -8 0 -21 12 -14
11 -14 -9 -1 -16 9 -19 16 -10 21 7 4 17 7 22 7 6 0 4 -3 -3 -6z m8182 -170
l387 -167 -33 -17 c-18 -9 -706 -343 -1529 -743 l-1496 -726 -129 0 -129 0
-485 229 c-267 126 -696 329 -955 451 -258 122 -472 224 -474 225 -2 2 169 90
379 195 l382 191 575 -235 575 -236 133 0 132 0 1014 499 1014 499 126 1 126
1 387 -167z m-8409 137 c3 -6 -1 -7 -9 -4 -18 7 -21 14 -7 14 6 0 13 -4 16
-10z m102 -5 c0 -11 -4 -12 -14 -4 -7 6 -13 13 -13 15 0 2 6 4 13 4 8 0 14 -7
14 -15z m61 -10 c-12 -28 -25 -33 -25 -10 0 8 4 12 8 10 4 -3 9 2 13 10 3 8 8
15 10 15 3 0 0 -11 -6 -25z m-178 -5 c0 -5 -5 -10 -11 -10 -5 0 -7 5 -4 10 3
6 8 10 11 10 2 0 4 -4 4 -10z m60 -6 c0 -14 -3 -14 -15 -4 -8 7 -15 14 -15 16
0 2 7 4 15 4 8 0 15 -7 15 -16z m160 6 c0 -5 -4 -10 -10 -10 -5 0 -10 5 -10
10 0 6 5 10 10 10 6 0 10 -4 10 -10z m-101 -35 c10 3 22 1 26 -5 3 -6 11 -7
17 -4 6 4 8 2 4 -4 -3 -6 2 -13 11 -15 10 -3 6 -4 -9 -4 -16 1 -28 7 -28 14 0
7 -12 0 -27 -15 -16 -15 -28 -35 -28 -44 0 -10 -4 -18 -10 -18 -5 0 -9 7 -9
15 1 8 2 22 3 30 0 8 10 15 20 15 11 0 23 5 27 12 5 7 0 9 -14 6 -14 -4 -22 0
-25 14 -4 15 -3 17 8 8 8 -7 23 -9 34 -5z m-109 -26 c0 -5 -7 -9 -15 -9 -15 0
-20 12 -9 23 8 8 24 -1 24 -14z m55 -7 c-8 -8 -25 10 -19 20 4 6 9 5 15 -3 4
-7 6 -15 4 -17z m-31 2 c3 -8 2 -12 -4 -9 -6 3 -10 10 -10 16 0 14 7 11 14 -7z
m-167 0 c-3 -3 -12 -4 -19 -1 -8 3 -5 6 6 6 11 1 17 -2 13 -5z m351 -54 c-2
-7 -10 1 -17 16 -12 27 -11 28 4 12 10 -9 16 -21 13 -28z m-300 10 c-7 -10
-14 -17 -17 -15 -4 4 18 35 25 35 2 0 -1 -9 -8 -20z m-34 -36 c3 -8 2 -12 -4
-9 -6 3 -10 10 -10 16 0 14 7 11 14 -7z m280 -3 c4 -5 -1 -8 -9 -7 -21 3 -31
16 -12 16 9 0 18 -4 21 -9z m-271 -61 c3 -11 1 -18 -4 -14 -5 3 -9 12 -9 20 0
20 7 17 13 -6z m9064 -347 c-4 -38 -7 -97 -7 -133 l-1 -65 -66 -50 c-36 -27
-71 -52 -78 -55 -6 -3 -32 -22 -57 -42 -25 -21 -49 -38 -53 -38 -4 0 -22 -12
-40 -27 -59 -51 -75 -63 -83 -63 -4 0 -19 -10 -34 -23 -14 -12 -36 -29 -48
-37 -12 -8 -28 -20 -34 -25 -6 -6 -27 -22 -46 -35 -19 -13 -41 -30 -48 -37 -7
-7 -17 -13 -20 -13 -4 0 -18 -10 -32 -23 -14 -12 -41 -32 -60 -44 -20 -12 -47
-31 -59 -43 -13 -11 -27 -20 -30 -20 -3 0 -21 -14 -40 -30 -18 -17 -37 -30
-40 -30 -3 0 -18 -11 -33 -25 -25 -23 -76 -61 -138 -102 -38 -26 -142 -105
-170 -130 -13 -13 -39 -30 -57 -38 -18 -9 -33 -20 -33 -25 0 -6 -5 -10 -11
-10 -6 0 -29 -14 -51 -32 -47 -37 -88 -67 -138 -102 -19 -13 -48 -35 -65 -50
-16 -14 -33 -26 -37 -26 -5 0 -16 -8 -26 -17 -30 -30 -90 -73 -101 -73 -6 0
-11 -5 -11 -10 0 -6 -8 -14 -17 -17 -10 -4 -23 -12 -29 -17 -6 -6 -22 -18 -34
-26 -12 -8 -32 -23 -43 -34 -12 -10 -33 -26 -47 -35 -32 -21 -35 -22 -100 -73
-30 -24 -75 -56 -100 -73 -25 -16 -47 -32 -50 -35 -25 -25 -92 -64 -175 -103
-55 -25 -140 -64 -190 -88 -49 -23 -220 -102 -380 -175 l-290 -133 -3 417 c-1
229 1 418 5 420 5 1 721 342 1593 757 872 414 1591 754 1599 754 11 1 13 -12
8 -66z m-2551 -3768 c-3 -9 0 -15 9 -15 8 0 15 -8 15 -17 0 -14 2 -15 13 -4
10 10 8 15 -7 27 -11 8 -15 14 -9 14 7 0 15 -4 18 -10 3 -5 18 -10 33 -11 l27
-1 -25 -8 -25 -8 25 -2 c21 -2 19 -4 -10 -10 -19 -4 -27 -8 -18 -9 11 -1 15
-6 12 -16 -5 -12 -11 -9 -27 13 -12 15 -27 30 -34 35 -11 7 -8 37 4 37 3 0 3
-7 -1 -15z m15 -97 c-4 -26 -6 -28 -9 -10 -2 12 -7 20 -12 17 -5 -3 -7 -12 -3
-20 3 -8 0 -15 -7 -15 -6 0 -8 -5 -4 -12 4 -7 3 -8 -5 -4 -9 6 -9 11 0 22 6 8
8 14 3 14 -5 1 1 9 13 19 12 10 19 22 15 26 -4 5 -2 5 4 2 6 -3 8 -20 5 -39z
m-131 -33 c5 3 11 1 14 -4 4 -5 -2 -8 -11 -7 -9 2 -18 8 -19 15 -1 6 0 7 3 1
2 -5 9 -8 13 -5z m-81 -39 c9 -11 9 -16 -1 -22 -7 -4 -10 -4 -6 1 4 4 3 14 -3
22 -6 7 -9 13 -6 13 2 0 10 -6 16 -14z m77 -3 c-3 -4 3 -12 15 -18 19 -11 19
-13 5 -18 -10 -4 -15 -3 -12 2 3 5 -1 11 -9 15 -18 6 -20 26 -3 26 6 0 8 -3 4
-7z m-125 -20 c13 -16 12 -17 -3 -4 -10 7 -18 15 -18 17 0 8 8 3 21 -13z m125
-28 c16 -14 37 -24 47 -21 9 2 17 -1 17 -6 0 -6 6 -6 14 2 13 10 14 7 10 -15
-3 -15 0 -32 5 -39 6 -7 6 -17 1 -26 -6 -8 -10 -13 -11 -10 0 3 -2 16 -5 30
-7 43 -13 50 -36 50 -17 0 -19 -3 -9 -9 11 -7 9 -10 -8 -16 -13 -4 -25 -4 -28
-1 -4 3 1 6 9 6 9 0 15 7 14 15 -3 18 -16 32 -16 17 0 -7 -4 -12 -10 -12 -5 0
-7 7 -4 15 5 11 1 14 -12 9 -14 -4 -16 -3 -5 4 11 8 10 12 -5 21 -11 6 -14 11
-8 11 6 0 24 -11 40 -25z m-60 3 c4 -7 4 -10 -1 -6 -4 4 -14 3 -22 -3 -7 -6
-13 -8 -13 -3 0 5 -5 2 -11 -6 -9 -13 -10 -13 -6 0 2 8 9 15 15 15 5 0 14 3
18 8 10 10 12 9 20 -5z m111 -4 c-3 -3 -12 -4 -19 -1 -8 3 -5 6 6 6 11 1 17
-2 13 -5z m-86 -31 c13 -16 12 -17 -3 -5 -9 8 -23 10 -29 6 -8 -4 -9 -3 -5 4
10 17 21 15 37 -5z m188 -24 c-13 -26 -19 -24 -19 6 0 17 4 23 15 19 11 -5 12
-11 4 -25z m-185 -28 c4 -5 -3 -7 -14 -4 -23 6 -26 13 -6 13 8 0 17 -4 20 -9z
m-76 -25 c-7 -8 -15 -12 -17 -11 -5 6 10 25 20 25 5 0 4 -6 -3 -14z m76 -11
c-4 -10 0 -15 15 -15 12 0 21 5 21 10 0 6 7 10 15 10 8 0 15 -4 15 -10 0 -5
-7 -10 -15 -10 -8 0 -15 -4 -15 -10 0 -5 -7 -7 -15 -3 -9 3 -15 2 -14 -3 1 -5
-1 -17 -6 -28 -4 -10 -4 -21 1 -25 5 -3 10 -13 12 -21 2 -11 -1 -11 -12 3 -11
15 -15 15 -19 3 -4 -9 2 -17 14 -21 10 -4 17 -11 13 -16 -3 -6 2 -17 12 -25
14 -11 15 -17 7 -20 -18 -8 -16 -24 4 -46 9 -10 11 -18 5 -18 -6 0 -13 6 -15
13 -3 7 -6 5 -6 -5 -1 -11 6 -18 17 -19 12 0 10 -3 -8 -12 -14 -6 -28 -16 -32
-22 -4 -5 -8 2 -8 18 0 15 5 27 10 27 6 0 10 5 10 11 0 5 -4 7 -10 4 -5 -3
-10 0 -10 8 0 8 -8 21 -17 28 -15 12 -16 12 -11 -3 8 -19 -16 -56 -25 -41 -4
6 -1 13 6 16 8 3 13 16 12 29 -1 12 5 28 12 33 12 9 10 16 -9 40 -12 17 -15
24 -6 17 20 -16 37 3 19 21 -6 6 -11 20 -11 31 0 10 3 16 7 13 4 -4 12 6 19
23 13 30 29 44 18 15z m-87 -41 c-3 -3 -12 -4 -19 -1 -8 3 -5 6 6 6 11 1 17
-2 13 -5z m143 -4 c0 -5 -5 -10 -11 -10 -5 0 -7 5 -4 10 3 6 8 10 11 10 2 0 4
-4 4 -10z m-130 -14 c0 -3 -4 -8 -10 -11 -5 -3 -10 -1 -10 4 0 6 5 11 10 11 6
0 10 -2 10 -4z m136 -18 c3 -4 -1 -5 -10 -4 -8 1 -18 5 -22 8 -3 4 1 5 10 4 8
-1 18 -5 22 -8z m9 -38 c-3 -5 -11 -10 -16 -10 -6 0 -7 5 -4 10 3 6 11 10 16
10 6 0 7 -4 4 -10z m105 -26 c0 -2 -9 -4 -20 -4 -11 0 -20 4 -20 9 0 5 9 7 20
4 11 -3 20 -7 20 -9z m-220 -4 c0 -5 -2 -10 -4 -10 -3 0 -8 5 -11 10 -3 6 -1
10 4 10 6 0 11 -4 11 -10z m100 0 c0 -5 -4 -10 -10 -10 -5 0 -10 5 -10 10 0 6
5 10 10 10 6 0 10 -4 10 -10z m-143 -6 c-3 -3 -12 -4 -19 -1 -8 3 -5 6 6 6 11
1 17 -2 13 -5z m163 -24 c0 -5 -8 -10 -17 -10 -15 0 -16 2 -3 10 19 12 20 12
20 0z m-200 -44 c0 -3 -4 -8 -10 -11 -5 -3 -10 -1 -10 4 0 6 5 11 10 11 6 0
10 -2 10 -4z m98 -59 c0 -13 -6 -24 -12 -24 -6 0 -22 -3 -36 -7 -23 -6 -23 -6
3 9 18 10 26 22 23 31 -3 8 1 14 8 14 7 0 14 -10 14 -23z m83 -21 c9 -4 20 -6
25 -5 24 4 26 -2 6 -17 -12 -8 -22 -22 -22 -30 0 -8 -8 -14 -17 -14 -16 -1
-16 -2 -3 -13 21 -17 23 -37 4 -37 -14 0 -13 -3 3 -17 10 -10 13 -14 6 -9 -7
5 -13 7 -14 5 -6 -32 -6 -39 4 -39 8 0 8 -3 -1 -12 -7 -7 -8 -17 -2 -29 7 -12
6 -20 0 -24 -6 -4 -7 -12 -3 -18 4 -7 0 -6 -10 2 -17 13 -24 26 -9 18 12 -8 6
46 -7 72 -9 16 -16 20 -20 12 -5 -7 -12 -11 -17 -9 -5 2 -10 -1 -11 -7 -1 -5
8 -9 21 -7 21 3 23 -1 22 -38 -1 -22 -4 -39 -8 -38 -3 2 -14 -5 -25 -14 -13
-12 -23 -14 -33 -8 -13 8 -12 10 3 10 19 0 24 30 5 31 -10 0 -10 2 0 6 6 2 12
9 12 14 0 6 -4 8 -9 5 -5 -4 -7 4 -3 16 4 16 2 19 -9 13 -9 -5 -7 -1 3 11 10
11 19 31 21 44 4 27 -17 55 -33 45 -5 -3 0 9 13 28 12 19 25 33 30 30 4 -2 7
1 7 7 0 7 5 8 13 3 6 -4 17 -8 22 -8 6 0 11 -6 11 -12 3 -23 4 -24 18 -11 14
14 10 42 -5 32 -5 -3 -9 0 -9 6 0 6 -4 9 -9 5 -5 -3 -12 -1 -15 3 -6 10 21 9
45 -2z m-191 -91 c-10 -13 -9 -15 11 -16 l24 -2 -24 -4 c-19 -4 -21 -7 -10
-14 10 -6 11 -9 1 -9 -19 0 -26 28 -12 45 7 8 15 15 17 15 3 0 0 -7 -7 -15z
m89 -43 c-6 -10 -20 -18 -30 -17 -27 2 -32 11 -6 12 12 1 23 7 25 13 2 5 8 10
13 10 5 0 4 -8 -2 -18z m-85 -58 c3 -8 2 -12 -4 -9 -6 3 -10 10 -10 16 0 14 7
11 14 -7z m40 -39 c3 -8 1 -15 -3 -15 -5 0 -11 7 -15 15 -3 8 -1 15 3 15 5 0
11 -7 15 -15z m39 -73 c-2 -7 4 -12 13 -12 8 0 13 4 9 9 -3 5 0 13 6 17 7 4 9
3 5 -4 -3 -6 -2 -13 3 -16 5 -4 12 -2 16 4 8 13 25 13 25 -1 0 -5 -4 -7 -10
-4 -5 3 -10 2 -10 -3 0 -5 -18 -9 -40 -9 -22 0 -37 3 -35 5 3 3 -1 12 -7 20
-10 12 -9 14 7 10 11 -2 19 -10 18 -16z m-58 -33 c-4 -5 -12 -9 -18 -8 -9 0
-8 2 1 6 6 2 9 10 6 15 -4 7 -2 8 5 4 6 -4 9 -12 6 -17z m31 -45 c-12 -12 -16
-12 -16 -2 0 10 -3 9 -10 -2 -7 -10 -10 -11 -10 -2 0 7 7 15 15 18 10 4 14 13
9 28 -6 20 -5 20 11 -2 15 -20 15 -24 1 -38z m51 40 c-3 -3 -12 -4 -19 -1 -8
3 -5 6 6 6 11 1 17 -2 13 -5z m-90 -20 c-3 -3 -12 -4 -19 -1 -8 3 -5 6 6 6 11
1 17 -2 13 -5z m118 -54 c-2 -11 0 -20 6 -20 5 0 9 -5 9 -11 0 -5 -4 -7 -10
-4 -5 3 -10 -1 -10 -10 0 -9 -6 -23 -14 -30 -12 -12 -15 -12 -20 0 -3 8 3 19
12 24 12 8 13 10 3 11 -11 0 -10 5 4 20 10 11 13 20 7 20 -7 0 -12 5 -12 10 0
6 6 10 14 10 9 0 13 -7 11 -20z m55 10 c0 -5 -2 -10 -4 -10 -3 0 -8 5 -11 10
-3 6 -1 10 4 10 6 0 11 -4 11 -10z m-90 -20 c0 -5 -11 -9 -25 -8 -14 1 -25 6
-25 10 0 4 11 8 25 8 14 0 25 -4 25 -10z m-30 -25 c18 3 21 2 12 -7 -8 -8 -8
-15 -1 -24 7 -9 7 -18 0 -31 -10 -18 -12 -16 -15 22 -1 14 -7 19 -21 18 -14
-1 -21 4 -21 17 0 13 4 16 11 10 6 -5 22 -7 35 -5z m-23 -76 c-5 -3 -8 -15 -7
-25 3 -28 1 -36 -9 -30 -4 3 -5 24 -1 46 7 39 7 40 -19 35 -24 -5 -24 -4 4 9
28 13 30 13 36 -7 3 -12 1 -25 -4 -28z m70 -25 c2 -7 -6 -11 -22 -10 -14 0
-25 5 -25 9 0 5 -5 5 -12 1 -6 -4 -8 -3 -5 3 9 14 59 11 64 -3z m-47 -33 c0
-5 -7 -12 -16 -15 -14 -5 -15 -4 -4 9 14 17 20 19 20 6z m-38 -26 c12 -17 9
-25 -9 -24 -12 0 -13 2 -5 6 10 4 9 9 -5 19 -13 11 -14 14 -3 12 8 -2 18 -7
22 -13z m34 -22 c-3 -10 -7 -33 -8 -50 -1 -18 -6 -33 -11 -33 -5 0 -6 8 -3 18
3 9 7 32 8 50 1 17 6 32 11 32 5 0 6 -8 3 -17z m-31 -23 c-3 -5 -14 -10 -23
-9 -14 0 -13 2 3 9 27 11 27 11 20 0z m-12 -81 c-4 -15 -8 -17 -14 -8 -6 11 4
28 18 29 0 0 -1 -9 -4 -21z m27 1 c0 -5 -5 -10 -11 -10 -5 0 -7 5 -4 10 3 6 8
10 11 10 2 0 4 -4 4 -10z m-43 -52 c-3 -8 -6 -5 -6 6 -1 11 2 17 5 13 3 -3 4
-12 1 -19z m41 -157 c-7 -11 -16 -17 -20 -14 -10 5 10 33 23 33 5 0 4 -9 -3
-19z m-23 -121 c3 -5 2 -10 -4 -10 -5 0 -13 5 -16 10 -3 6 -2 10 4 10 5 0 13
-4 16 -10z m-18 -137 c-3 -10 -5 -2 -5 17 0 19 2 27 5 18 2 -10 2 -26 0 -35z
m-227 -409 c0 -8 -5 -12 -10 -9 -6 4 -8 11 -5 16 9 14 15 11 15 -7z m-67 -109
c-3 -9 -8 -14 -10 -11 -3 3 -2 9 2 15 9 16 15 13 8 -4z m-32 -18 c-10 -9 -11
-8 -5 6 3 10 9 15 12 12 3 -3 0 -11 -7 -18z m92 -8 c-8 -8 -13 -7 -18 2 -5 8
-4 10 3 5 7 -4 12 -2 12 5 0 7 3 9 7 6 4 -4 2 -12 -4 -18z m-53 -43 c0 -2 -7
-7 -16 -10 -8 -3 -12 -2 -9 4 6 10 25 14 25 6z m165 -6 c-2 -3 5 -24 15 -47
18 -40 17 -53 -2 -53 -5 0 -7 9 -3 19 3 10 0 25 -7 33 -7 7 -14 20 -16 28 -2
8 -9 18 -15 22 -7 4 -2 6 10 5 12 0 20 -4 18 -7z m-159 -56 c-1 -8 -6 -17 -12
-21 -5 -4 -6 -4 -2 1 4 5 3 14 -2 21 -7 8 -5 12 4 12 8 0 13 -6 12 -13z m24
-74 c0 -5 -5 -10 -11 -10 -5 0 -7 5 -4 10 3 6 8 10 11 10 2 0 4 -4 4 -10z
m-86 -28 c3 -5 -1 -9 -9 -9 -8 0 -12 4 -9 9 3 4 7 8 9 8 2 0 6 -4 9 -8z m219
-23 c3 -12 -1 -15 -14 -12 -10 3 -27 2 -36 -2 -10 -5 -22 -7 -27 -6 -5 1 -3
-5 4 -14 12 -14 15 -14 31 1 11 10 19 12 19 7 0 -11 -29 -27 -42 -25 -5 1 -8
-5 -8 -13 0 -8 -4 -15 -9 -15 -5 0 -7 9 -4 20 3 11 0 20 -6 20 -8 0 -8 5 1 19
7 11 18 17 27 13 10 -4 13 -1 9 9 -4 10 2 14 23 14 18 1 29 -5 32 -16z m-129
-4 c-4 -8 -12 -15 -19 -15 -17 0 -27 -28 -12 -33 6 -2 3 -6 -7 -10 -9 -4 -15
-3 -11 2 3 6 -2 14 -11 19 -15 9 -15 10 4 16 12 4 22 12 22 17 0 6 4 8 9 4 5
-3 12 -1 16 5 9 15 15 12 9 -5z m-4 -41 c0 -11 6 -14 21 -9 15 5 19 4 15 -4
-11 -17 -34 -13 -46 9 -7 14 -7 20 0 20 5 0 10 -7 10 -16z m-55 -34 c3 -5 -1
-10 -10 -10 -9 0 -13 5 -10 10 3 6 8 10 10 10 2 0 7 -4 10 -10z m45 0 c0 -5
-5 -10 -10 -10 -6 0 -15 -11 -20 -25 -5 -14 -15 -25 -21 -25 -8 0 -8 4 1 15
11 13 10 15 -6 10 -10 -4 -7 1 9 10 15 8 27 20 27 25 0 6 5 10 10 10 6 0 10
-4 10 -10z m-7 -70 c4 -15 1 -19 -14 -17 -10 2 -22 7 -26 12 -5 4 -3 5 3 2 7
-4 14 0 18 8 7 20 13 19 19 -5z m-38 -40 c-3 -5 -12 -10 -18 -10 -7 0 -6 4 3
10 19 12 23 12 15 0z m135 0 c0 -5 -4 -10 -10 -10 -5 0 -10 5 -10 10 0 6 5 10
10 10 6 0 10 -4 10 -10z m-216 -18 c3 -5 -1 -9 -9 -9 -8 0 -12 4 -9 9 3 4 7 8
9 8 2 0 6 -4 9 -8z m55 -26 c-3 -3 -11 5 -18 17 -13 21 -12 21 5 5 10 -10 16
-20 13 -22z m67 21 c4 -4 0 -7 -9 -7 -9 0 -18 4 -21 9 -7 10 20 9 30 -2z m-19
-23 c-3 -3 -12 -4 -19 -1 -8 3 -5 6 6 6 11 1 17 -2 13 -5z m33 -4 c0 -5 -2
-10 -4 -10 -3 0 -8 5 -11 10 -3 6 -1 10 4 10 6 0 11 -4 11 -10z m-33 -36 c2
-10 0 -13 -3 -6 -3 6 -10 10 -15 6 -5 -3 -9 2 -9 11 0 23 24 13 27 -11z m-37
-29 c0 -8 -2 -15 -4 -15 -2 0 -6 7 -10 15 -3 8 -1 15 4 15 6 0 10 -7 10 -15z
m-83 -17 c-3 -8 -6 -5 -6 6 -1 11 2 17 5 13 3 -3 4 -12 1 -19z m-63 -24 c3 -8
2 -12 -4 -9 -6 3 -10 10 -10 16 0 14 7 11 14 -7z m161 -4 c-3 -5 -12 -10 -18
-10 -7 0 -6 4 3 10 19 12 23 12 15 0z m-92 -43 c-4 -7 -8 -6 -11 3 -3 8 -10
22 -16 30 -6 8 -1 7 11 -4 13 -10 20 -23 16 -29z m34 1 c-3 -8 -6 -5 -6 6 -1
11 2 17 5 13 3 -3 4 -12 1 -19z m43 12 c5 8 10 11 10 5 0 -5 -12 -21 -27 -35
-21 -19 -25 -21 -20 -7 4 10 7 26 7 35 0 15 2 15 10 2 9 -13 11 -13 20 0z
m-57 -47 c-7 -2 -19 -2 -25 0 -7 3 -2 5 12 5 14 0 19 -2 13 -5z m78 -20 c12
-16 12 -17 -2 -6 -9 7 -19 10 -22 6 -4 -3 -7 -1 -7 5 0 17 16 15 31 -5z m-71
-7 c0 -2 -7 -7 -16 -10 -8 -3 -12 -2 -9 4 6 10 25 14 25 6z m37 -19 c0 -7 -9
-13 -19 -13 -18 0 -18 1 -2 13 10 7 18 13 19 13 1 0 2 -6 2 -13z m63 -12 c-7
-9 -15 -13 -19 -10 -3 3 1 10 9 15 21 14 24 12 10 -5z m-122 -20 c-3 -3 -9 2
-12 12 -6 14 -5 15 5 6 7 -7 10 -15 7 -18z m-22 3 c4 -7 3 -8 -4 -4 -7 4 -12
2 -12 -4 0 -6 -5 -8 -11 -4 -8 4 -7 9 2 15 18 11 17 11 25 -3z m67 -17 c-4 -3
-11 -10 -15 -15 -5 -5 -8 0 -8 12 0 15 4 20 16 15 9 -3 12 -9 7 -12z m-28 -53
c-6 -30 -21 -43 -28 -24 -4 9 -1 15 6 13 7 -1 11 6 9 16 -2 9 2 17 7 17 5 0 8
-10 6 -22z m80 -38 c3 -5 -1 -10 -9 -10 -8 0 -18 5 -21 10 -3 6 1 10 9 10 8 0
18 -4 21 -10z m-102 -31 c4 -15 2 -18 -7 -10 -7 6 -17 7 -22 3 -4 -4 -2 1 5
11 17 21 18 21 24 -4z m150 -53 c9 5 9 4 0 -6 -13 -15 -37 -4 -26 13 5 8 8 8
11 -1 2 -7 9 -9 15 -6z m-218 -6 c-3 -5 -14 -10 -23 -10 -15 0 -15 2 -2 10 20
13 33 13 25 0z m98 -30 c3 -11 0 -23 -5 -27 -7 -3 -8 -1 -4 5 4 7 1 12 -9 12
-13 0 -14 3 -3 15 7 8 14 14 14 15 1 0 4 -9 7 -20z m-83 0 c0 -5 -5 -10 -11
-10 -5 0 -7 5 -4 10 3 6 8 10 11 10 2 0 4 -4 4 -10z m10 -55 c0 -2 -6 -7 -12
-11 -7 -4 -10 -4 -6 1 4 4 0 14 -10 22 -15 13 -15 13 6 3 12 -6 22 -13 22 -15z
m73 -18 c-7 -11 -20 0 -26 24 -6 21 -5 21 12 3 10 -11 16 -22 14 -27z m-66
-22 c0 -8 -3 -13 -5 -10 -3 3 -11 0 -19 -6 -16 -14 -17 -3 0 16 16 19 24 19
24 0z m-7 -40 c-7 -8 -17 -15 -22 -15 -11 0 14 29 26 30 5 0 3 -7 -4 -15z m36
-17 c4 -6 3 -8 -3 -5 -14 9 -26 -24 -14 -36 5 -5 7 -16 3 -25 -4 -11 -1 -14 9
-10 10 4 15 -1 15 -12 0 -10 -3 -18 -6 -18 -18 1 -21 -4 -10 -17 10 -12 10
-18 0 -30 -7 -8 -18 -15 -24 -15 -6 0 -3 7 7 14 24 18 21 29 -5 21 -16 -4 -19
-4 -9 3 7 5 10 15 7 21 -4 6 -1 11 6 11 9 0 10 3 2 8 -6 4 -10 16 -8 27 2 11
-4 26 -13 33 -16 11 -16 12 0 12 9 0 16 3 16 8 -4 24 14 31 27 10z m48 -54
c-7 -6 -11 -14 -7 -17 3 -4 1 -7 -5 -7 -7 0 -9 11 -5 30 3 19 1 30 -6 30 -6 0
-11 6 -11 12 0 7 11 1 24 -12 20 -21 22 -27 10 -36z m-29 8 c-3 -3 -11 0 -18
7 -9 10 -8 11 6 5 10 -3 15 -9 12 -12z m18 -73 c-10 -4 -12 -8 -5 -8 20 -1 14
-19 -10 -31 -21 -10 -22 -10 -5 3 13 11 15 16 5 19 -10 4 -11 8 -1 20 7 8 9
19 5 24 -4 4 1 2 11 -6 18 -14 18 -14 0 -21z m-96 -34 c0 -8 -4 -12 -9 -9 -4
3 -8 9 -8 15 0 5 4 9 8 9 5 0 9 -7 9 -15z m-52 -15 c3 -6 -1 -7 -9 -4 -18 7
-21 14 -7 14 6 0 13 -4 16 -10z m28 -25 c-7 -21 -12 -19 -10 4 0 11 5 18 9 15
4 -3 5 -11 1 -19z m90 -1 c-3 -8 0 -14 5 -14 6 0 13 8 15 18 3 9 5 3 4 -15 -1
-28 -3 -30 -20 -21 -10 5 -21 7 -25 4 -3 -3 0 -6 7 -6 7 0 9 -4 6 -10 -3 -5
-1 -10 6 -10 7 0 9 -3 6 -7 -10 -10 -42 29 -43 52 0 14 7 20 22 21 15 1 21 -3
17 -12z m-138 -23 c3 -5 2 -12 -3 -15 -5 -3 -9 1 -9 9 0 17 3 19 12 6z m95
-41 c-8 -5 -10 -16 -6 -26 6 -18 5 -17 -9 0 -17 22 -20 40 -5 31 6 -3 10 -1
10 5 0 6 5 8 11 4 8 -5 7 -9 -1 -14z m-85 -11 c-10 -15 -25 -10 -19 6 4 8 10
12 15 9 5 -3 7 -10 4 -15z m-43 -46 c-3 -16 -7 -22 -10 -15 -4 13 4 42 11 42
2 0 2 -12 -1 -27z m73 17 c3 -5 1 -10 -4 -10 -6 0 -11 5 -11 10 0 6 2 10 4 10
3 0 8 -4 11 -10z m125 -48 c0 -7 -4 -10 -10 -7 -5 3 -10 -1 -10 -9 0 -20 17
-30 23 -14 4 9 6 10 6 1 2 -23 -16 -22 -37 2 -12 14 -18 25 -13 25 5 0 11 10
15 23 5 18 8 20 16 7 5 -8 10 -21 10 -28z m-143 -14 c0 -7 2 -19 4 -27 2 -7
-3 -16 -11 -18 -10 -3 -11 -2 -3 4 8 6 9 14 3 23 -12 19 -13 30 -2 30 5 0 9
-6 9 -12z m94 -15 c13 -16 12 -17 -3 -4 -10 7 -18 15 -18 17 0 8 8 3 21 -13z
m-11 -28 c0 -7 7 -15 15 -19 8 -3 15 -10 15 -16 0 -15 -34 19 -50 50 -12 23
-12 24 3 11 10 -7 17 -19 17 -26z m-40 15 c0 -5 -2 -10 -4 -10 -3 0 -8 5 -11
10 -3 6 -1 10 4 10 6 0 11 -4 11 -10z m0 -51 c0 -3 -6 -6 -14 -6 -8 0 -11 8
-8 20 4 14 7 16 13 5 5 -7 9 -16 9 -19z m-77 6 c-3 -9 -8 -14 -10 -11 -3 3 -2
9 2 15 9 16 15 13 8 -4z m67 -55 c11 -7 11 -10 2 -10 -8 0 -10 -5 -6 -12 5 -9
2 -9 -9 1 -30 24 -19 41 13 21z m-43 -32 c-3 -8 -6 -5 -6 6 -1 11 2 17 5 13 3
-3 4 -12 1 -19z m93 -70 c0 -10 5 -18 11 -18 5 0 7 5 4 10 -3 6 -1 10 5 10 12
0 10 -59 -2 -66 -4 -3 -8 1 -8 8 0 10 -2 10 -9 -1 -6 -9 -10 -10 -16 -2 -4 7
-3 17 3 24 5 7 6 23 2 37 -4 17 -8 21 -14 12 -13 -22 -26 -13 -24 17 l2 29 23
-21 c12 -12 23 -30 23 -39z m-99 19 c-10 -9 -11 -8 -5 6 3 10 9 15 12 12 3 -3
0 -11 -7 -18z m36 1 c-3 -8 -6 -5 -6 6 -1 11 2 17 5 13 3 -3 4 -12 1 -19z
m-68 -28 c-6 -5 -18 -6 -26 -3 -19 8 -16 11 13 11 17 0 22 -3 13 -8z m91 -14
c0 -3 -4 -8 -10 -11 -5 -3 -10 -1 -10 4 0 6 5 11 10 11 6 0 10 -2 10 -4z m-80
-21 c0 -2 -9 -3 -19 -2 -11 0 -18 5 -15 9 4 6 34 0 34 -7z m2 -21 c-20 -9 -30
-19 -26 -26 4 -7 3 -8 -5 -4 -15 9 -5 25 23 36 36 15 43 9 8 -6z m125 -18 c1
-5 7 -13 15 -17 9 -6 9 -9 1 -9 -6 0 -15 5 -18 11 -4 6 -13 8 -19 6 -7 -3 -13
0 -13 7 0 14 31 15 34 2z m-192 -16 c10 -11 13 -20 7 -20 -6 0 -16 9 -22 20
-6 11 -9 20 -7 20 2 0 12 -9 22 -20z m27 -57 c-6 -2 -9 -10 -6 -15 4 -7 2 -8
-5 -4 -13 9 -5 26 12 25 9 0 8 -2 -1 -6z m48 -15 c0 -6 -6 -5 -15 2 -8 7 -15
14 -15 16 0 2 7 1 15 -2 8 -4 15 -11 15 -16z m30 -38 c0 -5 -10 -6 -21 -3 -20
6 -20 4 -8 -18 11 -22 11 -23 -4 -11 -24 20 -18 49 10 44 13 -2 23 -8 23 -12z
m-70 1 c0 -5 -6 -11 -12 -13 -8 -3 -4 -9 10 -17 21 -11 32 -51 13 -51 -5 0 -7
10 -4 21 5 19 3 21 -19 17 -19 -3 -25 -1 -24 11 2 27 36 57 36 32z m186 -8
c-2 -2 -7 -4 -10 -4 -3 1 -15 -4 -26 -9 -11 -6 -20 -7 -20 -2 0 11 42 31 53
25 5 -3 6 -7 3 -10z m-289 -15 c-3 -8 -6 -5 -6 6 -1 11 2 17 5 13 3 -3 4 -12
1 -19z m163 -70 c0 -6 -6 -5 -15 2 -8 7 -15 14 -15 16 0 2 7 1 15 -2 8 -4 15
-11 15 -16z m-80 -32 c-7 -7 -13 -7 -20 0 -6 6 -3 10 10 10 13 0 16 -4 10 -10z
m-105 -15 c3 -5 2 -12 -3 -15 -5 -3 -9 1 -9 9 0 17 3 19 12 6z m82 -27 c-3 -3
-12 -4 -19 -1 -8 3 -5 6 6 6 11 1 17 -2 13 -5z"/>
<path d="M14860 21620 c0 -5 5 -10 11 -10 5 0 7 5 4 10 -3 6 -8 10 -11 10 -2
0 -4 -4 -4 -10z"/>
<path d="M14856 21563 c-6 -14 -5 -15 5 -6 7 7 10 15 7 18 -3 3 -9 -2 -12 -12z"/>
<path d="M9280 20545 c-8 -2 -65 -6 -127 -7 -61 -2 -113 -5 -115 -8 -3 -3 3
-176 13 -385 9 -209 20 -450 23 -535 4 -85 9 -189 12 -231 l6 -75 112 3 c253
8 339 33 431 127 107 110 147 240 146 471 -1 258 -55 420 -175 533 -43 40 -83
67 -121 81 -52 20 -172 35 -205 26z"/>
<path d="M4845 18250 c-3 -6 1 -7 9 -4 18 7 21 14 7 14 -6 0 -13 -4 -16 -10z"/>
<path d="M4851 18133 c-1 -17 16 -25 25 -12 4 7 3 9 -4 5 -5 -3 -13 0 -15 6
-4 9 -6 10 -6 1z"/>
<path d="M14120 17150 c0 -5 5 -10 10 -10 6 0 10 5 10 10 0 6 -4 10 -10 10 -5
0 -10 -4 -10 -10z"/>
<path d="M18437 16446 c-225 -55 -408 -106 -408 -111 1 -14 225 -405 232 -405
8 0 599 606 599 614 0 8 33 16 -423 -98z"/>
<path d="M10910 16222 c0 -12 3 -12 15 -2 8 7 15 13 15 15 0 1 -7 2 -15 2 -8
0 -15 -7 -15 -15z"/>
<path d="M16575 14310 c-3 -5 -1 -10 4 -10 6 0 11 5 11 10 0 6 -2 10 -4 10 -3
0 -8 -4 -11 -10z"/>
<path d="M16595 14260 c-3 -5 1 -10 10 -10 9 0 14 -4 10 -10 -3 -5 -12 -7 -19
-4 -7 3 -16 -2 -20 -11 -4 -11 -1 -15 12 -13 23 4 39 20 39 41 0 18 -22 23
-32 7z"/>
<path d="M16628 14208 c-14 -14 -15 -18 -4 -18 8 0 17 7 20 16 9 23 4 24 -16
2z"/>
<path d="M16586 14174 c-9 -22 -8 -24 9 -24 8 0 15 6 15 14 0 22 -17 28 -24
10z"/>
<path d="M16670 14161 c0 -5 5 -13 10 -16 6 -3 10 -2 10 4 0 5 -4 13 -10 16
-5 3 -10 2 -10 -4z"/>
<path d="M16555 14151 c-3 -6 -1 -11 6 -11 7 0 0 -13 -16 -30 -34 -35 -13 -43
24 -9 18 17 20 23 9 37 -7 10 -13 18 -14 20 -1 2 -5 -1 -9 -7z"/>
<path d="M16644 14145 c-4 -8 -9 -13 -13 -10 -4 2 -8 -2 -8 -10 0 -8 4 -12 9
-9 10 7 30 44 23 44 -3 0 -8 -7 -11 -15z"/>
<path d="M16700 14135 c0 -8 4 -15 10 -15 5 0 7 7 4 15 -4 8 -8 15 -10 15 -2
0 -4 -7 -4 -15z"/>
<path d="M16300 14091 c0 -7 -4 -10 -9 -7 -5 3 -11 -4 -14 -16 -4 -15 -3 -18
5 -10 8 8 15 7 24 -6 11 -15 12 -13 8 13 -5 31 -14 47 -14 26z"/>
<path d="M16594 14092 c4 -3 14 -7 22 -8 9 -1 13 0 10 4 -4 3 -14 7 -22 8 -9
1 -13 0 -10 -4z"/>
<path d="M16646 14073 c-6 -14 -5 -15 5 -6 7 7 10 15 7 18 -3 3 -9 -2 -12 -12z"/>
<path d="M16685 14080 c3 -5 8 -10 11 -10 2 0 4 5 4 10 0 6 -5 10 -11 10 -5 0
-7 -4 -4 -10z"/>
<path d="M16579 14068 c12 -16 11 -18 -10 -19 -19 -1 -20 -2 -5 -6 27 -7 40
11 19 28 -16 13 -17 12 -4 -3z"/>
<path d="M16410 14050 c-9 -6 -10 -10 -3 -10 6 0 15 5 18 10 8 12 4 12 -15 0z"/>
<path d="M16490 14046 c0 -2 7 -7 16 -10 8 -3 12 -2 9 4 -6 10 -25 14 -25 6z"/>
<path d="M16535 14020 c-3 -5 1 -10 9 -10 9 0 16 5 16 10 0 6 -4 10 -9 10 -6
0 -13 -4 -16 -10z"/>
<path d="M16473 14005 c0 -8 4 -12 9 -9 4 3 8 9 8 15 0 5 -4 9 -8 9 -5 0 -9
-7 -9 -15z"/>
<path d="M16606 13982 c-3 -5 1 -9 9 -9 8 0 12 4 9 9 -3 4 -7 8 -9 8 -2 0 -6
-4 -9 -8z"/>
<path d="M16409 13933 c-13 -16 -12 -17 4 -4 9 7 17 15 17 17 0 8 -8 3 -21
-13z"/>
<path d="M5735 8780 c3 -5 8 -10 11 -10 2 0 4 5 4 10 0 6 -5 10 -11 10 -5 0
-7 -4 -4 -10z"/>
<path d="M5783 8755 c0 -8 4 -12 9 -9 4 3 8 9 8 15 0 5 -4 9 -8 9 -5 0 -9 -7
-9 -15z"/>
<path d="M5773 8723 c4 -3 -1 -15 -10 -26 -10 -11 -12 -17 -5 -13 7 4 21 2 30
-6 15 -11 16 -11 4 3 -7 9 -10 24 -6 33 4 10 1 16 -7 16 -7 0 -9 -3 -6 -7z"/>
<path d="M5759 8658 c-11 -8 -10 -9 3 -4 9 3 18 -1 20 -9 2 -11 5 -11 15 0 9
10 8 14 -6 18 -11 2 -25 0 -32 -5z"/>
<path d="M5600 8656 c0 -2 7 -7 16 -10 8 -3 12 -2 9 4 -6 10 -25 14 -25 6z"/>
<path d="M5730 8640 c0 -6 -4 -8 -10 -5 -5 3 -10 2 -10 -4 0 -17 14 -20 27 -5
8 8 9 15 3 19 -6 3 -10 1 -10 -5z"/>
<path d="M5607 8615 c-6 -15 10 -32 20 -21 4 3 1 6 -7 6 -10 0 -10 3 0 15 7 9
8 15 2 15 -5 0 -12 -7 -15 -15z"/>
<path d="M5648 8623 c7 -3 16 -2 19 1 4 3 -2 6 -13 5 -11 0 -14 -3 -6 -6z"/>
<path d="M5706 8597 c3 -10 9 -15 12 -12 3 3 0 11 -7 18 -10 9 -11 8 -5 -6z"/>
<path d="M5765 8590 c4 -6 11 -8 16 -5 14 9 11 15 -7 15 -8 0 -12 -5 -9 -10z"/>
<path d="M5791 8576 c-7 -8 -8 -17 -3 -20 6 -3 12 3 15 14 6 24 4 25 -12 6z"/>
<path d="M5500 8569 c0 -5 5 -7 10 -4 6 3 10 8 10 11 0 2 -4 4 -10 4 -5 0 -10
-5 -10 -11z"/>
<path d="M5730 8570 c-9 -6 -10 -10 -3 -10 6 0 15 5 18 10 8 12 4 12 -15 0z"/>
<path d="M5530 8560 c-8 -5 -12 -12 -9 -15 4 -3 12 1 19 10 14 17 11 19 -10 5z"/>
<path d="M5456 8531 c-20 -26 -20 -26 0 -8 12 9 24 14 27 10 4 -3 7 -1 7 5 0
22 -15 19 -34 -7z"/>
<path d="M5514 8516 c1 -8 5 -18 8 -22 4 -3 5 1 4 10 -1 8 -5 18 -8 22 -4 3
-5 -1 -4 -10z"/>
<path d="M5805 8519 c-11 -16 -1 -19 13 -3 7 8 8 14 3 14 -5 0 -13 -5 -16 -11z"/>
<path d="M5480 8488 c0 -9 -6 -19 -12 -21 -10 -4 -10 -6 0 -6 14 -1 28 26 18
36 -3 4 -6 -1 -6 -9z"/>
<path d="M11730 4115 c-8 -10 -10 -19 -4 -25 5 -5 14 1 21 16 12 27 2 32 -17
9z"/>
<path d="M11729 4031 c6 -10 6 -22 1 -27 -5 -5 2 -22 16 -39 l25 -30 -10 27
c-6 15 -7 27 -3 27 22 -4 24 3 4 17 -12 8 -20 19 -17 24 3 4 -2 11 -10 14 -12
4 -13 2 -6 -13z"/>
<path d="M11740 3827 c0 -4 -6 -5 -12 -1 -9 5 -9 2 1 -9 7 -9 19 -17 25 -17 6
0 4 5 -4 11 -12 9 -13 10 0 7 16 -5 23 -58 6 -55 -5 1 -10 -2 -11 -8 0 -5 -4
-16 -9 -24 -7 -11 -5 -13 7 -8 9 3 19 2 22 -4 10 -15 27 1 21 18 -4 9 -2 21 4
28 8 9 8 15 0 20 -6 3 -8 11 -5 16 4 5 1 9 -5 9 -7 0 -10 6 -7 13 3 8 -3 13
-14 13 -11 0 -19 -4 -19 -9z"/>
<path d="M11724 3785 c10 -8 23 -12 29 -8 11 7 -12 23 -33 23 -12 -1 -11 -4 4
-15z"/>
<path d="M11733 3668 c3 -9 1 -20 -5 -26 -6 -6 -6 -12 2 -17 15 -9 19 -4 22
25 2 13 -3 25 -11 28 -9 3 -12 0 -8 -10z"/>
<path d="M14966 21634 c1 -6 -3 -18 -9 -25 -8 -8 -5 -8 7 1 11 8 21 14 23 13
10 -8 23 -2 18 8 -4 6 -13 8 -20 5 -8 -3 -16 -2 -18 2 -2 4 -3 2 -1 -4z"/>
<path d="M15009 21493 c-13 -16 -12 -17 4 -4 9 7 17 15 17 17 0 8 -8 3 -21
-13z"/>
<path d="M14944 21447 c2 -15 -1 -30 -5 -33 -5 -3 -9 -10 -9 -15 0 -6 11 2 25
17 29 31 30 35 11 28 -8 -3 -17 2 -20 13 -3 10 -4 6 -2 -10z"/>
<path d="M15003 21457 c0 -8 6 -14 14 -14 9 0 10 4 2 14 -6 7 -12 13 -14 13
-1 0 -2 -6 -2 -13z"/>
<path d="M14936 21381 c-17 -7 -18 -8 -1 -24 13 -14 20 -15 31 -6 8 6 14 14
14 16 0 3 -6 0 -13 -6 -18 -14 -30 -2 -16 16 13 14 12 15 -15 4z"/>
<path d="M14924 21329 c-3 -6 2 -18 12 -27 17 -16 17 -16 5 0 -7 9 -10 22 -6
28 3 5 4 10 1 10 -3 0 -8 -5 -12 -11z"/>
<path d="M14950 21238 c0 -3 6 -11 14 -17 10 -9 17 -7 27 6 12 16 12 17 -2 6
-12 -10 -18 -10 -27 -1 -7 7 -12 9 -12 6z"/>
<path d="M14275 17110 c-3 -5 -1 -10 4 -10 6 0 11 5 11 10 0 6 -2 10 -4 10 -3
0 -8 -4 -11 -10z"/>
<path d="M14250 17080 c0 -6 7 -10 15 -10 8 0 15 2 15 4 0 2 -7 6 -15 10 -8 3
-15 1 -15 -4z"/>
<path d="M14290 17050 c-8 -5 -12 -11 -10 -14 3 -2 14 2 24 10 22 15 10 19
-14 4z"/>
<path d="M14230 17040 c19 -13 30 -13 30 0 0 6 -10 10 -22 10 -19 0 -20 -2 -8
-10z"/>
<path d="M14226 17022 c-3 -5 1 -9 9 -9 8 0 12 4 9 9 -3 4 -7 8 -9 8 -2 0 -6
-4 -9 -8z"/>
<path d="M14326 17009 c-11 -11 -16 -22 -13 -26 4 -3 7 -1 7 5 0 5 12 14 27
19 18 6 22 11 12 15 -7 3 -23 -3 -33 -13z"/>
<path d="M14335 16940 c4 -6 11 -8 16 -5 14 9 11 15 -7 15 -8 0 -12 -5 -9 -10z"/>
<path d="M19657 8583 c-46 -159 -151 -490 -157 -497 -5 -5 -294 79 -670 194
-364 111 -663 200 -665 198 -9 -8 -65 -201 -61 -206 12 -12 1501 -461 1506
-455 8 9 220 704 220 720 0 6 -31 21 -70 32 -38 12 -76 24 -84 27 -8 3 -16 -2
-19 -13z"/>
<path d="M17330 6873 c-47 -76 -85 -143 -85 -149 0 -9 752 -863 1051 -1193
l31 -35 57 88 c31 49 56 92 54 96 -2 5 -66 79 -143 165 -77 86 -141 160 -143
164 -3 8 269 444 292 469 9 9 54 0 216 -48 113 -33 210 -60 215 -59 15 0 118
170 108 179 -9 9 -1536 460 -1555 460 -7 0 -51 -62 -98 -137z m555 -213 c209
-62 381 -113 383 -114 5 -5 -238 -381 -247 -381 -7 0 -482 526 -541 600 -14
17 -13 18 5 13 11 -3 191 -56 400 -118z"/>
<path d="M16084 5608 c-214 -188 -388 -346 -386 -351 4 -14 106 -127 114 -127
4 0 73 59 154 130 80 72 150 130 154 130 7 0 73 -71 175 -189 17 -19 53 -60
80 -91 28 -30 178 -202 335 -380 157 -178 297 -337 311 -354 l25 -29 82 73
c72 63 80 74 69 89 -6 9 -173 200 -370 424 -196 223 -398 453 -447 509 l-90
103 28 25 c16 14 86 75 155 137 l126 112 -56 65 c-31 37 -60 66 -64 66 -3 0
-181 -154 -395 -342z"/>
<path d="M14772 4632 c-50 -26 -91 -50 -90 -54 2 -4 167 -319 368 -702 l365
-694 98 50 c53 28 97 54 97 57 -1 15 -727 1385 -736 1387 -5 2 -51 -18 -102
-44z"/>
<path d="M12152 4559 c9 -9 14 -20 10 -24 -4 -5 -2 -5 5 -2 6 4 9 17 5 29 -3
13 -7 17 -10 10 -2 -8 -9 -10 -16 -5 -7 4 -4 1 6 -8z"/>
<path d="M12090 4540 c-9 -6 -10 -10 -3 -10 6 0 15 5 18 10 8 12 4 12 -15 0z"/>
<path d="M12171 4504 c0 -11 3 -14 6 -6 3 7 2 16 -1 19 -3 4 -6 -2 -5 -13z"/>
<path d="M12143 4495 c0 -8 4 -12 9 -9 5 3 6 10 3 15 -9 13 -12 11 -12 -6z"/>
<path d="M12051 4484 c0 -11 3 -14 6 -6 3 7 2 16 -1 19 -3 4 -6 -2 -5 -13z"/>
<path d="M12089 4473 c-8 -9 -9 -14 -2 -10 6 4 13 2 15 -5 3 -9 6 -9 12 0 4 7
2 12 -4 12 -6 0 -8 5 -5 10 10 16 -1 11 -16 -7z"/>
<path d="M12133 4425 c0 -8 4 -12 9 -9 5 3 6 10 3 15 -9 13 -12 11 -12 -6z"/>
<path d="M11970 4400 c-9 -16 -8 -18 5 -14 8 4 15 12 15 20 0 20 -7 17 -20 -6z"/>
<path d="M12072 4394 c-7 -8 -8 -14 -3 -14 10 0 25 19 20 25 -2 1 -10 -3 -17
-11z"/>
<path d="M11963 4368 c-26 -12 -27 -17 -12 -38 9 -13 10 -12 5 2 -7 22 32 47
44 28 5 -8 10 -8 14 -2 4 8 -18 25 -27 21 -1 0 -12 -5 -24 -11z"/>
<path d="M11989 4321 c7 -5 10 -14 7 -20 -4 -6 0 -11 8 -11 9 0 16 4 16 8 0
12 -22 32 -34 32 -6 0 -5 -4 3 -9z"/>
<path d="M11990 4271 c0 -5 5 -13 10 -16 6 -3 10 -2 10 4 0 5 -4 13 -10 16 -5
3 -10 2 -10 -4z"/>
<path d="M11900 4108 c0 -11 12 -10 30 2 12 7 10 9 -8 7 -12 0 -22 -5 -22 -9z"/>
<path d="M11900 4059 c0 -5 5 -7 10 -4 6 3 10 8 10 11 0 2 -4 4 -10 4 -5 0
-10 -5 -10 -11z"/>
<path d="M13253 4039 c-458 -69 -663 -486 -492 -1001 105 -315 257 -503 477
-591 71 -29 86 -31 202 -32 105 0 136 4 194 23 120 40 185 80 270 163 l80 79
32 -31 32 -31 52 17 c40 13 50 21 45 34 -4 9 -63 180 -132 381 -69 201 -127
367 -129 369 -4 4 -426 -139 -437 -149 -7 -6 42 -152 55 -165 4 -4 57 12 119
34 62 23 118 41 124 41 6 0 38 -81 73 -181 l61 -181 -67 -66 c-196 -193 -436
-200 -618 -18 -68 68 -120 151 -170 272 -78 190 -114 376 -94 500 30 190 165
328 336 342 88 7 151 -17 223 -84 l59 -54 76 61 c42 33 76 66 76 72 -1 18 -69
91 -123 131 -78 58 -203 83 -324 65z"/>
<path d="M11935 3960 c10 -11 20 -20 23 -20 3 0 -3 9 -13 20 -10 11 -20 20
-23 20 -3 0 3 -9 13 -20z"/>
<path d="M11895 3790 c-3 -5 1 -10 10 -10 9 0 13 5 10 10 -3 6 -8 10 -10 10
-2 0 -7 -4 -10 -10z"/>
<path d="M11886 3757 c3 -10 9 -15 12 -12 3 3 0 11 -7 18 -10 9 -11 8 -5 -6z"/>
<path d="M11870 3650 c0 -6 7 -13 15 -17 24 -9 27 1 5 15 -13 8 -20 8 -20 2z"/>
<path d="M11880 3591 c0 -6 4 -13 10 -16 6 -3 7 1 4 9 -7 18 -14 21 -14 7z"/>
<path d="M11895 3510 c3 -5 8 -10 11 -10 2 0 4 5 4 10 0 6 -5 10 -11 10 -5 0
-7 -4 -4 -10z"/>
<path d="M11840 3445 c0 -16 16 -20 24 -6 3 5 -1 11 -9 15 -9 3 -15 0 -15 -9z"/>
<path d="M11876 3393 c-6 -14 -5 -15 5 -6 7 7 10 15 7 18 -3 3 -9 -2 -12 -12z"/>
<path d="M11789 3333 c-13 -15 -12 -15 8 -5 31 17 34 15 28 -20 -5 -31 -4 -32
10 -14 10 14 11 24 4 37 -12 23 -32 24 -50 2z"/>
<path d="M11850 3170 c-6 -11 -8 -20 -6 -20 3 0 10 9 16 20 6 11 8 20 6 20 -3
0 -10 -9 -16 -20z"/>
<path d="M11722 3112 c-7 -2 -12 -8 -12 -14 0 -7 5 -6 14 1 11 9 15 9 18 0 3
-9 9 -9 22 -2 17 9 16 11 -6 15 -13 2 -29 3 -36 0z"/>
<path d="M11702 3053 c2 -17 -2 -27 -9 -26 -6 1 -16 -4 -22 -11 -9 -11 -5 -13
20 -10 23 3 36 -2 51 -19 11 -12 17 -17 14 -10 -4 6 -3 13 1 16 5 2 2 2 -4 1
-7 -2 -13 1 -13 6 0 6 5 10 10 10 6 0 10 8 10 18 -1 16 -1 16 -11 0 -5 -9 -16
-15 -23 -12 -14 5 -16 28 -3 40 12 12 8 24 -9 24 -11 0 -15 -8 -12 -27z"/>
<path d="M11787 2961 c-4 -17 -3 -21 5 -13 5 5 8 16 6 23 -3 8 -7 3 -11 -10z"/>
<path d="M11743 2953 c-16 -6 2 -43 20 -42 9 0 9 2 0 6 -7 2 -13 11 -13 19 0
9 5 12 12 8 7 -4 8 -3 4 4 -4 7 -8 12 -9 11 -1 0 -8 -3 -14 -6z"/>
<path d="M11716 2903 c-6 -14 -5 -15 5 -6 7 7 10 15 7 18 -3 3 -9 -2 -12 -12z"/>
<path d="M11751 2874 c-1 -6 5 -17 12 -23 10 -8 14 -7 14 4 0 8 -4 12 -8 9 -4
-2 -10 2 -12 8 -4 8 -6 9 -6 2z"/>
<path d="M11761 2804 c0 -11 3 -14 6 -6 3 7 2 16 -1 19 -3 4 -6 -2 -5 -13z"/>
<path d="M11740 2791 c0 -6 4 -13 10 -16 6 -3 7 1 4 9 -7 18 -14 21 -14 7z"/>
<path d="M11685 2710 c-3 -5 -2 -10 4 -10 5 0 13 5 16 10 3 6 2 10 -4 10 -5 0
-13 -4 -16 -10z"/>
<path d="M11720 2711 c0 -6 4 -13 10 -16 6 -3 7 1 4 9 -7 18 -14 21 -14 7z"/>
<path d="M11699 2653 c-13 -16 -12 -17 4 -4 16 13 21 21 13 21 -2 0 -10 -8
-17 -17z"/>
<path d="M11735 2651 c-6 -11 13 -26 22 -17 4 3 1 6 -6 6 -7 0 -9 5 -6 10 3 6
4 10 1 10 -3 0 -7 -4 -11 -9z"/>
<path d="M11641 2621 c-8 -5 -9 -11 -3 -15 5 -3 12 1 16 9 6 17 6 18 -13 6z"/>
<path d="M11705 2580 c-3 -5 -2 -10 4 -10 5 0 13 5 16 10 3 6 2 10 -4 10 -5 0
-13 -4 -16 -10z"/>
<path d="M11651 2552 c0 -8 -6 -10 -13 -6 -7 4 -5 -2 6 -14 16 -19 36 -22 36
-6 0 3 -4 3 -9 -1 -5 -3 -12 5 -14 17 -2 13 -5 17 -6 10z"/>
<path d="M11655 2490 c-16 -7 -17 -9 -3 -9 9 -1 20 4 23 9 7 11 7 11 -20 0z"/>
<path d="M11668 2433 c-19 -5 -25 -38 -9 -47 5 -4 7 4 3 16 -3 13 -1 19 5 15
6 -4 13 0 17 8 3 8 4 14 3 14 -1 -1 -10 -3 -19 -6z"/>
<path d="M11676 2348 c3 -4 9 -8 15 -8 5 0 9 4 9 8 0 5 -7 9 -15 9 -8 0 -12
-4 -9 -9z"/>
<path d="M11594 2040 c2 -16 20 -14 24 2 3 10 2 10 -6 -1 -7 -9 -11 -10 -15
-2 -4 7 -5 8 -3 1z"/>
<path d="M11560 2029 c0 -5 5 -7 10 -4 6 3 10 8 10 11 0 2 -4 4 -10 4 -5 0
-10 -5 -10 -11z"/>
<path d="M11560 1966 c0 -2 7 -7 16 -10 8 -3 12 -2 9 4 -6 10 -25 14 -25 6z"/>
<path d="M11610 1960 c-9 -6 -10 -10 -3 -10 6 0 15 5 18 10 8 12 4 12 -15 0z"/>
<path d="M11550 1911 c0 -5 7 -12 16 -15 14 -5 15 -4 4 9 -14 17 -20 19 -20 6z"/>
<path d="M11620 1870 c0 -13 11 -13 30 0 12 8 11 10 -7 10 -13 0 -23 -4 -23
-10z"/>
<path d="M11524 1818 c-4 -6 -3 -8 4 -4 6 3 13 2 17 -4 8 -13 -25 -26 -34 -14
-3 6 -19 11 -36 12 l-30 1 25 -14 c14 -8 33 -14 43 -15 10 0 15 -4 12 -10 -3
-6 1 -7 9 -4 9 3 14 10 11 14 -3 5 -1 11 4 15 11 6 3 35 -9 35 -5 0 -12 -5
-16 -12z"/>
<path d="M11605 1749 c-4 -6 -5 -12 -2 -15 2 -3 7 2 10 11 7 17 1 20 -8 4z"/>
<path d="M11565 1709 c-4 -6 -5 -12 -2 -15 2 -3 7 2 10 11 7 17 1 20 -8 4z"/>
<path d="M11521 1681 c-9 -6 -10 -11 -2 -15 6 -4 11 -2 11 4 0 7 6 8 19 0 15
-7 22 -7 27 2 4 7 4 10 -1 6 -4 -4 -15 -3 -24 2 -10 5 -23 5 -30 1z"/>
<path d="M11503 1623 c-15 -5 -17 -23 -4 -23 5 0 11 7 15 15 3 8 4 15 3 14 -1
0 -8 -3 -14 -6z"/>
<path d="M11515 1591 c-3 -5 -2 -12 3 -15 5 -3 9 1 9 9 0 17 -3 19 -12 6z"/>
<path d="M11355 1580 c-3 -5 1 -10 9 -10 9 0 16 -6 16 -13 0 -15 46 -21 55 -8
3 5 0 13 -6 17 -8 4 -9 3 -5 -4 12 -20 -10 -13 -29 8 -20 22 -31 25 -40 10z"/>
<path d="M11350 1545 c0 -8 2 -15 4 -15 2 0 6 7 10 15 3 8 1 15 -4 15 -6 0
-10 -7 -10 -15z"/>
<path d="M11450 1532 c0 -5 7 -9 15 -9 8 0 15 4 15 9 0 4 -7 8 -15 8 -8 0 -15
-4 -15 -8z"/>
<path d="M11420 1519 c0 -5 -4 -8 -9 -4 -5 3 -13 0 -17 -7 -4 -7 -4 -10 1 -6
5 5 13 -2 20 -15 7 -13 8 -24 2 -28 -5 -4 -10 -17 -11 -30 0 -13 -6 -24 -13
-24 -6 0 -15 -3 -19 -7 -4 -5 -3 -8 3 -8 6 0 13 -10 16 -21 l6 -21 26 20 c15
12 33 18 42 15 15 -6 15 -7 0 -12 -11 -4 -13 -11 -8 -20 6 -9 11 -10 15 -2 4
6 12 8 18 5 6 -4 6 1 -1 14 -14 26 -30 31 -59 20 -18 -6 -23 -5 -19 4 2 7 10
12 16 11 6 -2 11 2 11 9 0 6 3 8 7 5 3 -4 12 -2 19 4 9 7 14 5 19 -10 3 -12
13 -21 20 -21 9 0 1 14 -19 35 -19 19 -38 35 -42 35 -4 0 -3 -5 4 -12 16 -16
15 -25 -3 -25 -16 0 -19 15 -9 41 3 9 10 13 15 10 5 -3 17 0 26 6 12 7 13 10
3 7 -8 -2 -23 0 -34 5 -13 7 -16 7 -12 -1 4 -6 2 -11 -3 -11 -15 0 -14 23 1
38 9 9 9 12 0 12 -7 0 -12 -5 -12 -11z"/>
<path d="M11480 1460 c-9 -6 -10 -10 -3 -10 6 0 15 5 18 10 8 12 4 12 -15 0z"/>
<path d="M11420 1350 c0 -6 -7 -10 -15 -10 -8 0 -15 -4 -15 -10 0 -14 13 -13
29 3 11 10 13 8 8 -11 -6 -27 8 -20 16 7 3 12 -1 22 -9 25 -8 3 -14 1 -14 -4z"/>
<path d="M11414 1228 c-4 -7 -3 -8 5 -4 6 4 20 2 29 -6 15 -12 16 -11 3 5 -16
20 -27 22 -37 5z"/>
<path d="M11432 1186 c7 -8 17 -12 22 -9 4 3 2 9 -5 14 -22 13 -31 11 -17 -5z"/>
<path d="M11436 1132 c-3 -5 1 -9 9 -9 8 0 12 4 9 9 -3 4 -7 8 -9 8 -2 0 -6
-4 -9 -8z"/>
<path d="M11505 1131 c-3 -5 -2 -12 3 -15 5 -3 9 1 9 9 0 17 -3 19 -12 6z"/>
<path d="M11380 1068 c13 -15 40 -19 40 -6 0 6 -6 8 -14 5 -7 -3 -19 -1 -25 4
-8 6 -8 5 -1 -3z"/>
<path d="M11325 990 c1 -25 3 -47 4 -49 0 -2 13 8 27 22 15 15 30 24 35 21 5
-3 9 2 9 10 0 9 5 16 12 16 6 0 8 3 5 7 -4 3 -16 -2 -27 -12 -12 -11 -31 -20
-43 -22 -19 -3 -19 -2 -7 9 9 7 13 12 11 11 -2 -2 -10 5 -16 14 -11 15 -12 10
-10 -27z"/>
<path d="M11415 960 c3 -5 8 -10 11 -10 2 0 4 5 4 10 0 6 -5 10 -11 10 -5 0
-7 -4 -4 -10z"/>
<path d="M11366 872 c-2 -4 -1 -14 3 -21 6 -10 10 -9 14 3 6 16 -8 32 -17 18z"/>
<path d="M11339 833 c-13 -16 -12 -17 4 -4 16 13 21 21 13 21 -2 0 -10 -8 -17
-17z"/>
<path d="M11357 790 c-3 -11 -4 -20 -3 -20 1 0 9 9 19 20 13 15 14 20 3 20 -7
0 -16 -9 -19 -20z"/>
<path d="M11261 744 c0 -11 3 -14 6 -6 3 7 2 16 -1 19 -3 4 -6 -2 -5 -13z"/>
<path d="M11350 728 c0 -6 3 -8 6 -5 4 3 15 2 25 -4 14 -7 17 -6 14 4 -7 16
-45 20 -45 5z"/>
<path d="M11346 665 c4 -8 11 -15 16 -15 6 0 5 6 -2 15 -7 8 -14 15 -16 15 -2
0 -1 -7 2 -15z"/>
<path d="M11390 671 c0 -6 4 -13 10 -16 6 -3 7 1 4 9 -7 18 -14 21 -14 7z"/>
<path d="M11306 597 c3 -10 9 -15 12 -12 3 3 0 11 -7 18 -10 9 -11 8 -5 -6z"/>
<path d="M11247 568 c-8 -29 -2 -34 19 -13 14 13 19 14 25 3 5 -7 9 -8 9 -3 0
34 -45 45 -53 13z"/>
<path d="M11315 561 c-3 -5 0 -13 6 -17 7 -4 9 -3 5 4 -3 5 0 13 6 15 9 4 10
6 1 6 -6 1 -14 -3 -18 -8z"/>
<path d="M11316 521 c-3 -5 0 -14 8 -20 10 -9 15 -8 19 3 9 22 -15 37 -27 17z"/>
<path d="M11300 449 c0 -5 5 -7 10 -4 6 3 10 8 10 11 0 2 -4 4 -10 4 -5 0 -10
-5 -10 -11z"/>
<path d="M11350 431 c0 -7 -5 -9 -12 -5 -7 5 -8 3 -3 -5 5 -9 10 -10 18 -2 6
6 8 14 4 18 -4 3 -7 1 -7 -6z"/>
<path d="M11273 386 c3 -8 1 -17 -6 -20 -7 -2 -2 -5 11 -5 20 -1 21 2 12 19
-12 23 -25 27 -17 6z"/>
<path d="M11240 340 c-9 -6 -10 -10 -3 -10 6 0 15 5 18 10 8 12 4 12 -15 0z"/>
<path d="M11120 329 c0 -5 5 -7 10 -4 6 3 10 8 10 11 0 2 -4 4 -10 4 -5 0 -10
-5 -10 -11z"/>
<path d="M11320 290 c-9 -6 -10 -10 -3 -10 6 0 15 5 18 10 8 12 4 12 -15 0z"/>
<path d="M11244 247 c1 -11 8 -22 16 -24 13 -4 13 -3 0 6 -12 9 -13 13 -2 20
11 7 11 9 -1 14 -10 4 -14 -1 -13 -16z"/>
<path d="M11294 255 c8 -7 12 -16 8 -20 -4 -5 -2 -5 5 -1 16 9 6 33 -14 33
-14 0 -14 -1 1 -12z"/>
<path d="M11157 241 c-3 -14 -1 -18 9 -14 16 6 18 19 5 27 -5 3 -11 -3 -14
-13z"/>
<path d="M11210 151 c0 -6 -8 -8 -17 -4 -19 7 -18 5 8 -15 14 -10 18 -10 22 2
4 9 2 18 -3 21 -6 4 -10 2 -10 -4z"/>
<path d="M11300 129 c0 -15 18 -19 23 -6 3 8 -1 14 -9 14 -8 0 -14 -4 -14 -8z"/>
<path d="M11270 96 c7 -7 13 -7 20 0 6 6 3 10 -10 10 -13 0 -16 -4 -10 -10z"/>
<path d="M11160 69 c0 -5 5 -7 10 -4 6 3 10 8 10 11 0 2 -4 4 -10 4 -5 0 -10
-5 -10 -11z"/>
<path d="M11185 59 c-3 -3 2 -12 10 -19 11 -10 18 -9 30 4 9 9 15 16 13 17
-20 5 -50 4 -53 -2z"/>
<path d="M11260 46 c0 -21 20 -30 33 -16 9 10 8 12 -7 6 -14 -5 -17 -2 -12 9
3 8 1 15 -4 15 -6 0 -10 -6 -10 -14z"/>
</g>
</svg>
